<?xml version="1.0" encoding="UTF-8"?><svg id="Layer_1" xmlns="http://www.w3.org/2000/svg" viewBox="0 0 857.14 971.52"><defs><style>.cls-1{stroke:#000;stroke-miterlimit:10;}</style></defs><path class="cls-1" d="M127.8,40.84c1.39-5.02,7.68-25.67,27.14-35.36,18.13-9.04,37.18-3.32,42.76-1.64,25.12,7.54,31.21,25.51,49.34,23.03,8.72-1.19,11.68-5.95,19.74-4.11,8.52,1.94,15.98,9.72,18.92,18.09,3.04,8.67-.8,12.19,2.47,20.56,3.38,8.67,10.68,13.07,13.16,14.8,20.93,14.66,32.61,73.83,34.54,121.71,1.11,27.42,1.91,47.29-3.29,74.02-5.88,30.21-15.3,47.95-6.58,70.73,5,13.05,15.45,26.45,17.27,28.78,2.19,2.8,3.96,4.76,5.93,6.95,4.89,5.43,5.94,6.58,5.87,6.64-.04,.04-.53-.35-2.44-2.16-14.4-32.76-16.27-40.61-15.04-41.25,1.45-.76,7.94,7.98,10.88,12.28,6.69,9.79,8.77,16.8,10.33,16.43,1.87-.44,.84-11.1,.44-15.02-2.4-23.84-8.36-32.91-3.53-45.06,.27-.69,3.36-8.31,6.18-7.95,3.44,.44,3.8,12.39,8.39,35.34,2.92,14.6,4.43,21.91,6.63,22.09,6.68,.54,14.92-53.44,17.67-53.01,2.41,.38,2.5,43.04-3.09,64.93-.21,.81-1.79,6.94-.52,7.5,2.01,.88,7.94-13.58,11.44-12.78,3.79,.86,1.74,18.94-1.21,62.7-1.53,22.74-1.5,25.67-4.42,30.92-11.33,20.41-42.48,31.56-57.51,21.73-2.22-1.45-3.85-3.47-7.12-7.5-13.24-16.34-12.86-28.17-16.86-27.96-7.17,.38-13.53,26.88-13.16,50.17,.15,9.64,1.2,47.15,27.96,76.48,12.46,13.66,26.13,20.35,53.46,33.72,44.04,21.55,52.4,14.64,83.06,34.54,19.06,12.37,43.96,31.08,50.99,27.14,6.57-3.69-7.08-26.62-13.16-37.01-4.51-7.72-10.22-7.82-37.83-21.38-18.71-9.19-26.33-14.17-29.61-23.03-.35-.96-3.63-10.09,0-13.16,3.37-2.85,14.9,3.54,37.83,16.45,15.82,8.9,28.81,16.25,43.59,15.63,4.33-.18,8.54-1.04,10.69-4.11,3.85-5.51-1.2-14.83-1.64-15.63-7.28-13.07-20.88-9.39-31.25-23.03-5.31-6.98-8.06-16.25-5.76-18.09,3.45-2.76,18.8,10.61,25.49,16.45,13.34,11.62,17.99,18.85,31.25,25.49,9.91,4.96,13.69,4.12,15.63,3.29,5.26-2.26,8.01-9.23,11.51-18.09,3.26-8.25,3.29-11.69,5.76-12.34,3.91-1.03,9.42,6.16,12.34,11.51,5.97,10.97,2.22,16.36,5.76,27.96,3.54,11.62,8.45,10,18.09,27.14,7.12,12.66,12.6,22.4,9.05,30.43-3.74,8.46-13.65,6.32-19.74,17.27-2.98,5.37-3.1,10.39-3.29,18.09-.15,6.43-.42,17.55,4.93,27.96,7.71,14.97,23.01,20.6,29.61,23.03,2.64,.97,39.89,13.98,67.44-9.87,22.23-19.25,21.74-48.28,21.38-55.1-1.64-31.66-24.43-52.68-49.34-75.66-23.48-21.66-45.85-32.96-69.9-45.23-42.98-21.93-51.33-18.27-83.76-36.78-20.57-11.74-46.68-26.65-68.47-54.77-7.9-10.2-45.12-58.24-35.78-120.59,9.62-64.2,62.72-104.34,66.7-101.6,3.21,2.21-25.71,32.26-30.92,83.48-1.34,13.12-5.29,51.93,17.35,83.87,13.9,19.61,32.42,29,64.81,41.58,84.03,32.63,109.41,27.71,172.27,52.56,45.48,17.98,78.1,31.35,105.04,65.4,28.31,35.78,35.3,75.42,38.65,95.4,3.47,20.71,9.64,57.46-4.93,100.33-2.19,6.45-27.39,76.96-97.87,107.73-52.7,23.01-107.86,13.82-116.78,12.34-13.89-2.31-40.84-8.44-80.59-10.69-11.41-.65-21.39-.83-29.61-.82-22.43,.03-46.17,.05-72.37,5.76-19.62,4.27-33.49,10.17-50.17,17.27-30.05,12.79-38.36,21-62.5,25.49-6.57,1.22-12.59,1.85-22.2,4.93-11.07,3.55-22.6,7.26-32.9,16.45-14.1,12.58-14.61,25.37-24.67,26.32-4.72,.44-10.14-1.85-12.34-5.76-5.86-10.43,12.7-29.87,14.8-32.07,16.56-17.35,36.55-22.97,36.19-23.85-.38-.91-22.59-.27-48.52,3.29-17.68,2.42-28.8,3.84-49.34,.82-37.4-5.49-42.54-7.39-44.41-10.69-2.13-3.75-4.46-10.49-1.64-13.98,3.24-4.03,11.86-1.94,16.45-.82,11.34,2.75,18.95,2.28,27.14,5.76,10.54,4.48,17.27,3.29,37.01,4.11,6.16,.26,26.45-4.47,26.32-8.22-.02-.55-.51-2.12-13.98-4.93-18.6-3.89-24.7-2.37-38.65-5.76-10.84-2.63-20.27-5.05-23.03-12.34-2.01-5.31-.26-12.64,3.29-13.98,3.39-1.28,7.6,3.23,10.69,5.76,19.09,15.64,57.16,6.42,57.57,1.64,.1-1.15-4.87-3.51-14.8-8.22-9.77-4.64-14-6-13.98-8.22,.03-2.99,7.73-5.15,9.87-5.76,16.08-4.52,30.73,1.54,32.9,2.47,11.41,4.9,9.41,8.52,18.92,11.51,4.97,1.57,6.86,1,28.78,0,16.44-.75,28.17-11.34,29.42-13.98,1.88-3.96-11.12-8.74-17.09-12.34-7.86-4.73-36.27-15.16-41.94-16.45-18.09-4.11-65.88-31-103.5-64.22-42.43-37.46-25.1-21.58-47.82-54.21-13.88-19.94-35.24-54.72-50.17-101.98-3.82-12.09-13.7-56.59-.82-107.73,6.52-25.91,19.29-54.45,14.8-56.75-1.32-.67-3.45,1.26-9.05,6.58-27.29,25.93-29.22,29.77-35.36,30.43-12.47,1.33-23.65-12.09-27.96-17.27-6.77-8.13-4.51-9.73-15.63-33.72-8.46-18.24-13.15-24.6-10.69-33.72,1.75-6.5,6.52-12.14,9.05-11.51,2.79,.7,1.49,8.74,5.76,22.2,1.29,4.06,4.25,13.42,6.58,13.16,2.97-.33,5.47-16.45,4.11-32.07-1.2-13.76-4.87-21.24,0-28.78,1.92-2.98,5.55-6.54,8.22-5.76,3,.88,3.63,6.89,4.11,11.51,1.04,9.99-1.29,13.76-.82,24.67,.24,5.64,.51,11.93,2.47,12.34,3.08,.64,11.29-13.37,10.69-25.49-.62-12.64-3.65-51.81-1.99-18.24,0,0-.65-1.4-.47-1.5,.44-.23-6.28-21.5,5.35-22.2,25.12-1.53-12.34,96.63,25.91,43.59,5.48-7.6,9.14-13.09,19.74-30.43,6.26-10.24,7.83-9.49,14.8-19.74,2.22-3.26,12.41-18.54,18.92-40.3,2.92-9.78,9.58-32.93,4.93-60.86-3.73-22.4-10.33-21.38-18.09-50.17-2.85-10.57-8.51-32.25-6.58-60.04,.9-12.97,3.85-32.99,13.98-55.92Z"/></svg>