<?xml version="1.0" encoding="UTF-8"?><svg id="Snake_Icon_Image" xmlns="http://www.w3.org/2000/svg" viewBox="0 0 522.73 407.23"><defs><style>.cls-1{stroke:#000;stroke-miterlimit:10;}</style></defs><path class="cls-1" d="M114.23,225.56c17.45-1.85,29.83-6.72,37.99-10.9,5.69-2.92,7.57-4.6,21.79-12.37,19.2-10.49,22.66-11.19,25.33-11.48,11.51-1.27,12.63,4.53,26.21,3.53,5.55-.41,11.16-2.23,22.38-5.89,12.36-4.03,13.16-5.16,17.96-6.48,26.1-7.15,55.31,11.93,57.72,13.55,6.18,4.14,10.63,8.38,20.02,11.78,5.02,1.82,15.68,5.68,22.09,.88,4.19-3.13,4.77-8.62,5.3-12.07,3.9-25.27,21.18-45.32,25.91-50.36,10.67-11.36,23.42-16.68,30.04-19.44,7.91-3.3,14.98-4.99,33.57-12.37,11.12-4.41,15.47-6.53,18.26-11.48,5.13-9.13,.45-19.91,0-20.91-1.58-3.49-4.24-7.24-15.61-14.72-11.73-7.72-19.8-13.05-32.69-16.49-12.69-3.39-24.05-6.43-33.28-.29-7.24,4.82-10.25,13.34-11.78,17.67-3.1,8.79-1.33,12.49-2.94,19.14-3.57,14.72-18.68,23-25.62,26.8-20.47,11.21-41.39,8.13-50.65,6.77-10.92-1.6-21.14-5.16-29.15-7.95-8.9-3.1-8.75-3.69-20.61-8.25-5.47-2.1-19.9-7.51-38.58-12.07-13.24-3.23-22.41-5.41-23.85-2.65-1.48,2.84,6.84,7.73,16.49,21.79,5.92,8.63,9.26,13.5,10.6,20.61,2.7,14.36-4.78,27.06-10.01,35.93-2.75,4.66-6.4,10.74-13.25,16.79-12.38,10.92-26.05,13.64-35.04,15.31-11.5,2.14-20.54,1.51-28.86,.88-7.53-.57-16.41-2.35-33.87-5.89-18.32-3.71-24.97-5.49-34.16-2.65-3.71,1.15-10.55,3.26-13.25,9.13-3.32,7.22,1.61,15.79,5.01,21.5,2.2,3.7,11.27,18.15,34.16,30.33,9.21,4.9,24.53,13.05,45.64,13.55,22.48,.53,40.28-7.87,54.18-14.43,12.98-6.13,14.01-8.74,26.8-13.84,6.04-2.41,20.53-8.06,38.87-9.42,30.89-2.29,55.5,8.87,67.14,15.31,17.6,9.74,36.3,20.1,42.99,40.05,3.72,11.1,2.56,21.67,12.07,35.34,3.77,5.42,7.32,8.59,13.84,14.43,15.15,13.56,20.46,12.95,34.45,25.91,2.05,1.9,8.92,8.38,15.31,18.55,4.81,7.64,7.79,12.55,6.18,17.67-2.02,6.41-10.2,9.76-16.2,10.31-2.85,.26-6.84,.03-23.56-9.13-10.59-5.8-15.89-8.7-20.32-12.37-4.93-4.08-13.25-10.96-18.55-22.38-4.12-8.87-1.99-10.94-6.77-22.09-2.6-6.06-5.3-10.11-10.6-17.96-9.4-13.94-14.1-20.9-22.09-28.27-5.01-4.63-12.69-11.71-24.74-16.49-15.3-6.07-28.74-4.9-40.93-3.83-7.57,.66-19.2,1.77-32.69,7.36-20.69,8.58-22.92,18.26-42.7,27.68-13.74,6.54-25.51,7.99-34.75,9.13-6.89,.85-38.89,4.23-75.09-12.07-7.97-3.59-31.13-14.88-51.83-39.17-11.83-13.88-23.92-28.06-27.09-50.36-.87-6.14-4.72-33.16,13.25-55.36,14.29-17.65,34.04-21.98,41.23-23.56,21.47-4.7,40.75,.51,49.77,2.94,20.06,5.42,30.11,13.5,47.71,10.31,3.85-.7,12.33-2.35,14.43-7.95,1.68-4.48-1.81-8.6-7.66-19.44-4.29-7.96-8.91-16.52-11.19-25.03-1.11-4.12-4.63-17.23,.88-31.51,6.48-16.79,21.21-24.22,25.33-26.21,13.7-6.64,26.39-5.41,35.34-4.42,9.22,1.02,13.42,2.91,49.18,18.26,16.62,7.14,31.31,13.3,49.77,14.14,5.08,.23,11.78,.12,17.96-3.83,7.95-5.07,10.15-13.36,12.66-19.44,8.84-21.35,28.84-32.93,35.04-36.52,22.4-12.96,47.16-8.16,60.37-5.6,11.23,2.18,40.02,9.57,62.14,35.34,5,5.82,16.4,20.44,21.79,41.82,1.7,6.73,3.29,13.27,2.65,22.09-.18,2.48-2.21,25.5-21.2,41.52-5.33,4.5-9.95,6.71-15.61,9.42-16.56,7.94-22.68,5.32-42.99,12.37-20.83,7.23-25.46,13.81-26.8,15.9-3.42,5.34-1.62,6.68-5.3,17.37-2.18,6.34-6.83,19.39-18.26,30.33-4.49,4.31-10.02,9.6-19.14,12.07-1.64,.44-14.79,3.8-27.68-2.94-6.5-3.4-5.94-5.71-19.14-18.26-8.99-8.54-13.49-12.81-19.44-15.9-12.41-6.44-24.39-6.28-28.27-6.18-7.03,.17-12.64,1.59-23.85,4.42-12.02,3.03-11.36,4.01-16.79,4.42-6.11,.46-12.22-.67-24.44-2.94-9.11-1.69-9.17-2.11-11.78-2.06-11.14,.19-19.3,7.88-21.79,10.01-8.06,6.87-25.19,13.8-65.37,13.25Z"/></svg>