<?xml version="1.0" encoding="UTF-8"?><svg id="svg815" xmlns="http://www.w3.org/2000/svg" viewBox="0 0 1656.88 819.24"><defs><style>.cls-1{fill:#fff;}.cls-1,.cls-2{stroke:#000;}.cls-2{fill:#1a1a1a;}</style></defs><path id="path829" class="cls-2" d="M931.84,165.83c.44,.39,2.22,.94,3.89,1.92,1.67,.97,3.22,2.36,5.03,4s3.86,3.53,5.31,4.47,2.28,.94,3.47,.83,2.75-.33,4.36-.19,3.28,.64,5.22,1.5,4.17,2.08,6.33,3.67c2.17,1.58,4.28,3.53,5.78,4.89s2.39,2.14,3.44,2.53c1.06,.39,2.28,.39,3.58,.42,1.3,.03,2.7,.08,4.42,.58,1.72,.5,3.78,1.44,5.94,2.75,2.17,1.31,4.44,2.97,6.78,4.89,2.33,1.92,4.72,4.08,6.71,5.55,1.99,1.47,3.62,2.26,7.9,3.7,4.28,1.44,11.22,3.56,14.67,4.39,3.44,.83,3.39,.39,2.7-1.25s-2.03-4.47-4.64-7.67c-2.61-3.19-6.5-6.75-11.89-10.56s-12.28-7.86-20.03-11.56c-7.75-3.69-16.36-7.03-24.28-9.47-7.92-2.44-15.14-4-20.58-4.89s-9.11-1.11-11.39-1.11-3.17,.22-2.72,.61h0Z"/><path id="path837" class="cls-2" d="M1576.34,814.36c-.06-.92,.39-2.64,.81-4.86s.81-4.95,1.06-7.14c.25-2.19,.36-3.86,.64-5.03s.72-1.83,1.08-2.19c.36-.36,.64-.42,1.83,.03,1.19,.44,3.31,1.39,4.61,2.28,1.31,.89,1.81,1.72,2.89,3.56,1.08,1.83,2.75,4.67,4.86,7.61,2.11,2.94,4.67,6,5.81,7.53,1.14,1.53,.86,1.53-.89,1.47-1.76-.06-4.97-.17-8.8-.53s-8.28-.97-10.78-1.33c-2.5-.36-3.06-.47-3.11-1.39h0Z"/><path id="path841" class="cls-2" d="M1608.34,815.33c-.28-.89-.22-2.78-.36-4.97s-.47-4.69-1.11-7.64c-.64-2.94-1.58-6.33-1.92-8.05-.33-1.72,.06-1.78,1.33-2.35,1.28-.57,3.61-1.71,5.39-2.29,1.78-.58,3.06-.64,4-.33s1.56,.97,2.02,2.11,.81,2.86,1.24,3.96c.43,1.1,1.01,1.68,1.9,2.1,.89,.42,2.11,.69,3.17,.56s1.94-.69,2.81-1.56c.86-.86,1.69-2.03,2.08-3.11,.39-1.08,.33-2.08,.47-2.72s.47-.92,1.22-1.14c.75-.22,1.92-.39,2.67-.25,.75,.14,1.08,.58,1.58,1.22,.5,.64,1.17,1.47,1.92,2.14,.75,.67,1.58,1.17,2.83,1.5,1.25,.34,2.81,.5,3.47,.8,.67,.3,.39,.75-.36,1.97s-1.97,3.22-4.67,5.67c-2.7,2.45-6.86,5.33-11.8,7.58-4.95,2.25-10.67,3.86-13.83,4.72-3.17,.86-3.78,.97-4.06,.08h0Z"/><path id="path845" class="cls-2" d="M1361.17,752.17c-3.39-1.09-6.89-2.22-10.69-3.42-3.81-1.19-7.97-2.47-13.61-4.58s-12.75-5.06-19.97-9.36-14.56-9.97-21.72-17.47-14.17-16.83-20.14-26.53c-5.97-9.69-10.92-19.75-15.36-30.5-4.44-10.75-8.39-22.19-10.47-27.7s-2.31-5.06-2-3.5c.31,1.56,1.14,4.22,2.5,8.53,1.36,4.31,3.25,10.25,5.39,16.25,2.14,6,4.53,12.06,7.48,18.69,2.96,6.63,6.43,13.76,9.91,19.76,3.47,6,6.92,10.83,10.69,15.61,3.78,4.78,7.89,9.5,11.42,13.17s6.47,6.28,9.58,8.81c3.11,2.53,6.39,4.97,10.22,7.14s8.22,4.06,10.14,5.05c1.92,.99,1.25,1.12-3.01,1-4.26-.11-12.13-.44-22.77-1.44-10.64-1-24.03-2.67-38.86-4.78-14.83-2.11-31.11-4.67-42.78-7.28-11.67-2.61-18.72-5.28-25.47-8.03s-13.19-5.58-19.22-8.36c-6.03-2.78-11.64-5.5-17.42-8.86-5.78-3.36-11.72-7.36-15.31-10.22s-4.81-4.58-5.94-5.86c-1.14-1.28-2.19-2.11-3.19-2.75-1-.64-1.94-1.08-2.42-1.78-.47-.7-.47-1.64-.58-2.33s-.33-1.14-1.06-1.89-1.94-1.81-3.61-3.56-3.78-4.19-5-5.67c-1.22-1.47-1.56-1.97-2.8-2.67-1.25-.69-3.42-1.58-7.11-3.14-3.7-1.56-8.92-3.78-12.5-5.56-3.58-1.78-5.53-3.11-7.28-4.58-1.75-1.47-3.31-3.08-4.36-3.92-1.06-.83-1.61-.89-3.08-.56s-3.86,1.05-6.53,1.17c-2.67,.11-5.61-.39-8-1.22-2.39-.83-4.22-2-5.25-3.03-1.03-1.03-1.25-1.92-1.69-2.69s-1.11-1.44-2.06-1.75c-.94-.31-2.17-.25-3.86-.53-1.7-.28-3.86-.89-5.36-1.5s-2.33-1.22-3.03-1.81-1.25-1.14-1.58-1.92-.44-1.78-.94-2.28c-.5-.5-1.39-.5-2.58-.28s-2.69,.67-4.03,.92c-1.33,.25-2.5,.31-3.44,.28-.94-.03-1.67-.14-2.31,.22s-1.19,1.19-1.89,1.94c-.69,.75-1.53,1.42-2.36,1.83-.83,.42-1.67,.58-2.69,.72-1.03,.14-2.25,.25-3.42,.72-1.17,.47-2.28,1.31-4.58,2.25-2.31,.95-5.8,2-9.78,3.41-3.98,1.41-8.52,3.2-11.52,3.06-3-.14-4.5-2.19-6.86-4.69s-5.58-5.44-9.44-8.53-8.36-6.31-12.36-8.97-7.5-4.78-11.69-6.92-9.08-4.31-13.56-5.67-8.53-1.92-10.6-2.05c-2.08-.14-2.2,.25-1.23,.55s3.02,.58,5.83,1.22,6.36,1.64,10.53,3.44,8.94,4.42,14.06,7.47,10.56,6.56,15.61,10.53c5.06,3.97,9.72,8.42,13.33,12.36,3.61,3.94,6.17,7.39,8.33,11.19,2.17,3.81,3.94,7.97,5.5,12.83,1.56,4.86,2.89,10.42,4.42,16.75s3.25,13.44,4.81,19.47,2.94,10.97,4.33,14.83c1.39,3.86,2.78,6.64,3.58,9.06s1.03,4.47,1.06,6.25c.03,1.78-.14,3.28-.28,4.39-.14,1.11-.25,1.83-.03,2.83,.22,1,.78,2.28,1.14,3.36,.36,1.08,.53,1.97,.75,3.31,.22,1.33,.5,3.11,.44,4.64-.06,1.53-.44,2.81-1,4.06-.56,1.25-1.28,2.47-2.06,3.36s-1.61,1.44-2.5,1.69c-.89,.25-1.83,.19-2.56-.08-.72-.28-1.22-.78-1.78-1.86-.56-1.08-1.17-2.75-1.72-4.42-.56-1.67-1.06-3.33-1.44-4.25-.39-.92-.67-1.08-1.33-1.19-.67-.11-1.72-.17-2.72-.56-1-.39-1.94-1.11-2.81-1.94s-1.64-1.78-2.25-2.58c-.61-.81-1.06-1.47-1.39-1.75s-.55-.17-.75,.59c-.2,.75-.36,2.13-.61,4.69-.25,2.56-.58,6.28-1.14,9.53-.56,3.25-1.33,6.03-2.15,7.82-.82,1.79-1.74,2.65-2.18,3.24s-.45,.92-.56,2.17c-.11,1.25-.33,3.41-.78,5.25-.44,1.83-1.11,3.33-1.94,4.14-.83,.8-1.94,.92-2.83,.86-.89-.06-1.61-.28-2.39-1.06-.78-.78-1.61-2.11-2.17-3.83-.56-1.72-.83-3.83-1.03-5-.19-1.17-.31-1.39-.8-1.8-.5-.42-1.39-1.03-2.06-2.42-.67-1.39-1.11-3.56-1.53-5.42-.42-1.86-.81-3.42-1.19-4.25-.39-.83-.78-.94-1.53-.97-.75-.03-1.86,.03-3.28,.72-1.42,.69-3.14,2.03-4.81,4.39s-3.28,5.75-4.69,8.47c-1.42,2.72-2.64,4.78-4.61,6.72s-4.69,3.78-6.14,4.92-1.61,1.58-2.03,2.56c-.42,.97-1.08,2.47-2,3.64-.92,1.17-2.08,2-3.17,2.28-1.08,.28-2.08,0-2.97-.83-.89-.83-1.67-2.22-1.75-4.19-.08-1.97,.53-4.53,.94-6.42,.42-1.89,.64-3.11,.75-3.97s.11-1.36,.36-2.47c.25-1.11,.75-2.84,1.75-6.28,1-3.44,2.5-8.61,3.25-11.45,.75-2.83,.75-3.33,.53-3.86s-.67-1.08-1.11-1.56c-.44-.47-.89-.86-2-.81-1.11,.06-2.89,.56-5.17,1.44s-5.05,2.17-9.31,4.58-9.97,5.97-14.75,8.42c-4.78,2.44-8.61,3.78-11.33,4.61-2.72,.83-4.33,1.17-5.75,1.33s-2.64,.17-3.28-.33c-.64-.5-.69-1.5,1.05-3.67,1.75-2.17,5.31-5.5,9.89-9.58s10.2-8.92,13.64-12.14,4.72-4.83,5.19-5.61,.14-.72-2.15-.03c-2.28,.7-6.49,2.03-10.19,3-3.69,.97-6.86,1.58-9.53,1.75s-4.83-.11-6.28-.64-2.17-1.31-2.56-2.03-.44-1.39,.33-2.39,2.39-2.33,6.03-4.5,9.31-5.17,14.08-7.78c4.78-2.61,8.67-4.83,11.47-6.39,2.81-1.56,4.53-2.44,5.5-3.58,.97-1.14,1.19-2.53,1.22-3.61,.03-1.08-.14-1.86-.67-2.28-.53-.42-1.42-.47-2.61-.44-1.2,.03-2.69,.14-5.31-.83-2.61-.97-6.33-3.03-8.3-4.75s-2.19-3.11-2.55-3.67c-.36-.56-.86-.28-1.56-.14s-1.58,.14-2.78-.31c-1.2-.44-2.69-1.33-4.81-2.86s-4.83-3.69-6.19-5.5c-1.36-1.81-1.36-3.25-1.72-3.7-.36-.44-1.08,.11-1.72-.03-.64-.14-1.19-.97-2.47-3.08-1.28-2.11-3.28-5.5-4.83-8.56s-2.67-5.78-3.67-10.11-1.89-10.28-2.22-16.14c-.33-5.86-.11-11.64,.94-17.39s2.94-11.47,5.31-16.44c2.36-4.97,5.19-9.19,8.36-13.11,3.17-3.92,6.67-7.53,11.81-12.47,5.14-4.94,11.92-11.22,20.03-16.81s17.56-10.47,27.72-14.75c10.17-4.28,21.06-7.94,30.33-10.42,9.28-2.47,16.94-3.75,23-4.83,6.06-1.08,10.5-1.97,12.44-2.53s1.39-.78-.31-.69-4.53,.47-9.88,1.33c-5.36,.86-13.25,2.19-20.36,3.81s-13.44,3.5-20.22,5.72c-6.78,2.22-14,4.78-19.97,7.31s-10.69,5.03-15,7.5c-4.31,2.47-8.19,4.92-10.42,6.03-2.22,1.11-2.78,.89-7.48-1.59-4.7-2.47-13.52-7.19-24.86-13.3s-25.17-13.61-37.54-20.27-23.34-12.51-36.37-20.56c-13.03-8.06-28.14-18.33-40.19-28.86-12.06-10.53-21.06-21.31-29.03-32.58s-14.92-23.06-18.56-31.08-3.97-12.31-3.72-15.17,1.08-4.31,5.05-11.88,11.09-21.31,17.64-32.98c6.56-11.67,12.56-21.28,17-29.06s7.33-13.72,9.97-22.33c2.64-8.61,5.03-19.89,6.14-28.25,1.11-8.36,.94-13.81-.08-19.5-1.03-5.69-2.92-11.64-4.64-15.25s-3.28-4.89-4.14-5.39c-.86-.5-1.03-.22-.62,.49s1.43,1.9,2.68,4.6,2.75,6.92,3.75,10.83,1.5,7.53,1.47,12.53-.58,11.39-1.58,17.74-2.45,12.81-4.22,18.48c-1.76,5.67-3.79,10.49-6.97,16.75s-7.54,13.96-12.4,22.44-10.25,17.75-14.82,26.03-8.37,15.66-11.4,22.13c-3.03,6.47-5.31,12.08-7,15.28-1.69,3.19-2.81,3.97-4.67,4.67s-4.47,1.31-9.47,2.19-12.39,2.06-20.14,2.31-15.86-.42-21.56-1.19-8.97-1.67-10.69-1.86-1.89,.3-1.03,.86c.86,.56,2.75,1.17,5.66,1.81,2.92,.64,6.86,1.31,12.06,1.72s11.64,.58,18.06,.39c6.42-.19,12.81-.75,18.19-1.64s9.78-2.11,12.28-2.69,3.11-.53,3.69,.19c.58,.72,1.14,2.11,2.47,4.97s3.44,7.19,6.14,11.94c2.69,4.75,5.97,9.92,9.19,14.92s6.39,9.83,11.03,15.56c4.64,5.72,10.75,12.33,13.56,15.72s2.31,3.56,1.28,3.61c-1.03,.06-2.58,0-4.55-.39-1.97-.39-4.36-1.11-6.03-1.61-1.67-.5-2.61-.78-3.03-.61s-.31,.78,.19,2.06c.5,1.28,1.39,3.22,2.03,4.69s1.03,2.47,1.03,3.38c0,.91-.39,1.76-.17,2.87,.22,1.11,1.05,2.5,1.55,3.83s.67,2.61,.89,4.53c.22,1.92,.5,4.47,.33,6.08s-.78,2.28-1.56,2.78-1.72,.83-2.78,.94c-1.06,.11-2.22,0-3.25-.36-1.03-.36-1.92-.97-2.69-2.11-.78-1.14-1.44-2.81-2.03-3.64-.58-.83-1.08-.83-2.53-1.06-1.45-.22-3.83-.67-5.66-1.44s-3.11-1.89-4.33-3.22-2.39-2.89-3.28-3.67c-.89-.78-1.5-.78-2.7-.78s-2.97,0-3.69,.36-.39,1.08,.75,2.58c1.14,1.5,3.08,3.78,4.14,5.61,1.06,1.83,1.22,3.22,1.06,5.03-.17,1.81-.67,4.03-.89,5.42-.22,1.39-.17,1.94,0,3.56s.44,4.28,.33,5.97c-.11,1.69-.61,2.42-1.86,2.86-1.25,.45-3.25,.61-4.58,.44s-2-.67-2.58-1.47-1.08-1.92-1.53-2.56-.83-.81-1.97-1.08c-1.14-.28-3.03-.67-4.42-1.42-1.39-.75-2.28-1.86-3.33-3.14-1.06-1.28-2.28-2.72-3.17-3.97s-1.44-2.31-2.61-3.28-2.94-1.86-5.69-2.64c-2.75-.78-6.47-1.44-9.36-1.44s-4.94,.67-6.33,1.14-2.11,.75-2.39,1.53c-.28,.78-.11,2.05-.33,4.61-.22,2.56-.83,6.39-1.44,8.72-.61,2.33-1.22,3.17-2.17,3.56-.95,.39-2.22,.33-3.22-.14s-1.72-1.36-3.22-3.97c-1.5-2.61-3.78-6.94-6.06-10.94-2.28-4-4.56-7.67-6.17-9.97s-2.56-3.25-3.33-3.64c-.78-.39-1.39-.22-2.03,.19-.64,.42-1.3,1.08-2,1.33s-1.42,.08-2.28-1.08c-.86-1.17-1.86-3.33-2.69-3.86s-1.5,.58-2.39,1.03c-.89,.45-2,.22-3.03-1.31-1.03-1.53-1.97-4.36-2.86-5-.89-.64-1.72,.92-2.53,1.39-.81,.47-1.58-.14-2.28-1.97s-1.31-4.89-2.06-7.11c-.75-2.22-1.64-3.61-2.67-4.5s-2.19-1.28-2.97-3.11-1.17-5.11-2.22-8.22c-1.06-3.11-2.78-6.06-3.5-8.08s-.44-3.14-.92-4.8c-.47-1.67-1.7-3.89-2.47-6.03s-1.11-4.19-.81-8.55c.31-4.36,1.25-11.03,1.14-16-.11-4.97-1.28-8.25-2.11-10.83-.83-2.58-1.33-4.47-1.19-6.72s.92-4.86,2.42-8.39,3.72-7.97,4.64-10.19,.53-2.22-.34-3.56-2.19-4-2.78-6.66-.42-5.33,1-8.03c1.42-2.69,4.08-5.42,6.75-8,2.67-2.58,5.33-5.03,6.56-6.47,1.22-1.44,1-1.89,.31-2.97-.69-1.08-1.86-2.81-.97-4.95,.89-2.14,3.83-4.69,8-7.17,4.17-2.47,9.56-4.86,15.33-7.81,5.78-2.94,11.95-6.44,17.22-10.17s9.67-7.67,11.39-9.67,.78-2.06-.72-1.03c-1.5,1.03-3.55,3.14-5.89,5.05-2.33,1.92-4.94,3.64-6.81,4.72s-2.97,1.53-3.78,1.69c-.81,.17-1.31,.06-4.17-2.11s-8.08-6.39-15.91-13.08-18.28-15.86-28.14-25.17c-9.86-9.31-19.14-18.75-26.11-26.53-6.97-7.78-11.64-13.89-17.83-21.58-6.19-7.69-13.92-16.97-20.17-25.03s-11.03-14.89-15.64-20.11-9.06-8.83-13.25-11.28c-4.19-2.44-8.14-3.72-14.22-4.75s-14.31-1.81-25.86-2.75-26.44-2.06-46.11-2.83-44.11-1.22-68.56-2.06c-24.44-.83-48.89-2.06-70.72-3.5-21.83-1.44-41.06-3.11-57.78-4.89-16.72-1.78-30.95-3.67-39-5-8.05-1.33-9.94-2.11-8.61-3s5.89-1.89,8.05-2.83c2.17-.95,1.95-1.83,1.67-2.72s-.61-1.78-.83-2.83-.33-2.28,.22-3.44c.56-1.17,1.78-2.28,2.67-3.05,.89-.78,1.45-1.22,2.83-1.67,1.39-.44,3.61-.89,5.72-1.28,2.11-.39,4.11-.72,3.94-1.39-.17-.67-2.5-1.67-5.17-3.39s-5.67-4.17-7.67-6.33c-2-2.17-3-4.05-3.5-5.56s-.5-2.61-.33-3.61c.17-1,.5-1.89,.94-2.44,.45-.56,1-.78,2.11-.78,1.11,0,2.78,.22,7,1.28s11.1,2.97,17,4.4c5.89,1.43,11,2.43,12.5,1.54,1.5-.89-.61-3.67-3.56-6.67-2.94-3-6.72-6.22-9.5-9.11-2.78-2.89-4.56-5.44-5.33-7.06-.78-1.61-.56-2.28,1.11-2.56,1.66-.28,4.78-.17,10.28,.67,5.5,.83,13.39,2.39,20.28,3.61s12.78,2.11,16,2.39c3.22,.28,3.78-.06,2.84-1.11s-3.39-2.83-7.06-7.06c-3.67-4.22-8.56-10.89-10.44-14.39-1.89-3.5-.78-3.83,5.55-3.94s17.89,0,24.95-.22,9.61-.78,11.78-1.33c2.17-.56,3.94-1.11,5.33-1.39s2.39-.28,8.88,.33,18.73,1.84,24.59,2.16c5.86,.32,5.36-.43,3.7-1.48s-4.56-2.5-8.22-4.72c-3.67-2.22-8.11-5.22-10.04-6.87-1.93-1.64-1.18-2.02,2.65-2.19s10.84-.17,17.62,.06c6.78,.22,13.33,.67,17.72,.89s6.83,.22,7.72-.17c.89-.39,.33-1.17-1.67-2.56s-5.44-3.39-7.44-4.89-2.56-2.5-1.72-3.06c.83-.56,3.06-.67,6.61-.28,3.55,.39,8.45,1.28,14.5,2.78,6.05,1.5,13.28,3.61,16.39,4.28s2.11-.11,.67-1.5-3.33-3.39-3.67-4.5,.89-1.33,3-1.28c2.11,.06,5.11,.39,7.95,.94s5.5,1.33,7.28,1.61c1.78,.28,2.67,.06,3.61-.5,.94-.56,1.95-1.45,3.28-1.78,1.33-.33,3-.11,5.11,.28,2.11,.39,4.67,.94,7,1.56,2.33,.61,4.44,1.28,5.83,1.5s2.06,0,4.05-.5c2-.5,5.34-1.28,9.34-1.33,4-.06,8.67,.61,13.33,1.78s9.33,2.83,11.95,3.56,3.17,.5,4.05,.22,2.11-.61,3.72-.5,3.61,.67,5.67,1.33,4.17,1.44,5.67,1.72c1.5,.28,2.39,.06,4,.11s3.95,.39,6.95,1.17c3,.78,6.67,2,11,4.22,4.33,2.22,9.33,5.44,12.96,7.86,3.63,2.42,6.04,4.14,7.48,4.97,1.44,.83,2,.83,3.28,1,1.28,.17,3.28,.5,5.22,1.22s3.83,1.83,5.94,3.28,4.44,3.22,6.28,4.11c1.83,.89,3.39,.89,4.44,1.17,1.05,.28,1.72,.83,4,3.06s6.17,6.11,8.56,8.22,3.28,2.44,4.5,2.89,2.78,1,4.67,2.06,4.11,2.61,6.33,4.44,4.44,3.94,6.22,5.11,3.11,1.39,4.56,1.94c1.44,.56,3,1.44,5.67,3.78,2.67,2.33,6.44,6.11,8.64,7.69s2.92,.86,3.86,.92c.94,.06,2.17,.83,5.11,3.06,2.94,2.22,7.61,5.89,13.61,11.61s13.33,13.5,15.78,15.56c2.44,2.06,0-1.61-4.28-6.44s-10.39-10.83-15.44-15.33-9.06-7.5-11.23-9.03-2.94-1.69-3.55-1.74c-.61-.06-1.28-.06-3.34-1.56-2.06-1.5-5.5-4.5-8.16-6.55s-4.56-3.17-6-3.89-2.44-1.06-5.11-2.95-7-5.33-9.72-7.22-3.83-2.22-5.17-2.72-2.89-1.17-5.64-3.53-6.69-6.42-9.03-8.55-3.06-2.36-4.06-2.67-2.28-.69-3.36-1.17c-1.08-.47-1.97-1.03-3.53-2.08-1.56-1.06-3.78-2.61-5.42-3.67-1.64-1.06-2.69-1.61-3.89-2.08s-2.53-.86-3.83-1.17-2.58-.53-3.53-.83-1.56-.69-3.66-2.09c-2.11-1.4-5.84-3.88-9.23-5.95s-6.6-3.82-9.33-5.15-5-2.28-7.5-3.11-5.22-1.56-7.69-1.94c-2.47-.39-4.81-.45-6.25-.56-1.44-.11-2.06-.28-3.28-.69s-3.05-1.08-4.78-1.61-3.33-.92-4.72-1.03-2.56,.06-3.5,.17c-.94,.11-1.67,.17-3.28-.11-1.61-.28-4.11-.89-7.28-1.75-3.17-.86-7-1.97-10.22-2.58s-5.83-.72-8.22-.72-4.56,.11-6.69,.39-4.25,.72-5.72,.86c-1.47,.14-2.31-.03-4.36-.44s-5.33-1.08-7.92-1.56-4.47-.75-5.64-.86c-1.17-.11-1.61-.06-2.5,.36s-2.22,1.19-3.22,1.55c-1,.36-1.67,.31-3.14,.06-1.47-.25-3.86-.7-6.47-1.17s-5.5-.97-7.75-1.11-3.86,.08-4.97,.28c-1.11,.19-1.72,.36-2.11,.64s-.56,.67-.33,1.5c.22,.84,.83,2.11,.97,2.72,.14,.61-.19,.56-1.31,.25s-3-.86-5.83-1.56-6.61-1.53-9.72-2.14c-3.11-.61-5.56-1-8.08-1.22-2.53-.22-5.25-.28-7-.14s-2.58,.47-3.03,1.17-.5,1.75-.25,2.61,.81,1.53,2.15,2.63,3.55,2.68,4.54,3.48,.72,.87-2.79,.84c-3.52-.03-10.26-.14-16.57-.22-6.31-.08-12.14-.14-15.86,0-3.72,.14-5.33,.47-6.22,.89-.89,.42-1.06,.92-1.11,1.56-.06,.64,0,1.42,.58,2.33,.58,.92,1.69,1.97,4.45,3.71,2.76,1.74,7.24,4.21,8.97,5.37,1.72,1.17,.72,1.06-4,.58s-13.16-1.31-17.47-1.97-4.47-1.17-5.11-3.03c-.64-1.86-1.75-5.09-2.28-7.53-.53-2.44-.47-4.11-.19-5.75s.78-3.25,1.47-4.42c.69-1.17,1.58-1.89,3.17-2.31s3.86-.53,6.53-.17c2.67,.36,5.72,1.19,10.75,2.75s12.03,3.83,15.42,4.61,3.17,.06,2.5-1.3c-.67-1.36-1.78-3.36-2.42-4.75s-.81-2.17-.78-2.86c.03-.69,.25-1.31,.36-2.17s.11-1.97-.25-3.03c-.36-1.05-1.08-2.06-1.81-3.25-.72-1.19-1.44-2.58-1.89-3.94s-.61-2.69,.22-3.75,2.67-1.83,5.14-2.08,5.58,.03,9.72,1c4.14,.97,9.31,2.64,14.72,4.92s11.08,5.17,14.44,7.03c3.36,1.86,4.42,2.69,5.06,2.94s.86-.08,.56-1.97c-.3-1.88-1.14-5.34-1.7-8.73s-.83-6.72-.44-8.81,1.45-2.92,3-3.22c1.55-.31,3.61-.08,7.5,.72,3.89,.81,9.61,2.19,13.45,3.33s5.78,2.03,7.5,3.25,3.22,2.78,4.94,4.28,3.67,2.94,4.83,3.56,1.56,.39,1.81-.42,.36-2.2,.28-5.86c-.08-3.66-.36-9.61,.03-13.22,.39-3.61,1.45-4.89,3.47-5.39,2.03-.5,5.03-.22,8.19,.78,3.17,1,6.5,2.72,10.03,4.64s7.25,4.03,9.94,5.83,4.36,3.31,6.39,5.36c2.03,2.06,4.42,4.67,5.75,5.67,1.33,1,1.61,.39,1.69-2.66,.08-3.05-.03-8.56,.03-12.42,.06-3.86,.28-6.08,1-8.25s1.95-4.28,3.19-5.22c1.25-.94,2.53-.72,4.64-.33s5.06,.94,8.06,2.42c3,1.47,6.06,3.86,9.11,6.67s6.11,6.03,8.25,8.86,3.36,5.28,4.17,6.28,1.2,.56,1.39-1.8c.19-2.36,.19-6.64,.69-9.59s1.5-4.56,3-5.94c1.5-1.39,3.5-2.56,5.03-3.17,1.53-.61,2.58-.67,4.03-.11s3.28,1.72,5.44,3.36,4.67,3.75,7.19,6.64c2.53,2.89,5.08,6.56,6.75,9.72,1.67,3.17,2.44,5.83,2.97,6.86,.53,1.03,.81,.42,1.06-2.88s.47-9.31,1.14-13.39c.67-4.08,1.78-6.25,3.11-7.61,1.33-1.36,2.89-1.92,4.81-1.94,1.92-.03,4.2,.47,6.19,1.5s3.72,2.58,5.69,5.14c1.97,2.56,4.19,6.11,5.94,9.56s3.03,6.78,3.82,8.27,1.15,1.07,1.43-.96c.28-2.02,.5-5.7,.72-8.56s.44-4.92,.92-6.39,1.2-2.36,2.14-2.83c.94-.47,2.11-.53,3.61-.03,1.5,.5,3.33,1.56,5.58,2.92,2.25,1.36,4.92,3.03,7.44,5.94s4.92,7.08,6.69,9.83c1.78,2.75,2.94,4.08,3.72,4.43,.77,.34,1.17-.35,1.7-1.62,.53-1.28,1.19-3.17,1.81-4.89,.61-1.72,1.17-3.28,2.03-4.22,.86-.94,2.03-1.28,3.44-1.08s3.08,.92,4.81,2.25c1.72,1.33,3.5,3.28,5.64,6.36,2.14,3.08,4.64,7.31,6.03,9.19s1.67,1.44,1.97,0c.3-1.44,.64-3.89,1.11-5.17s1.08-1.39,2.36-1.28c1.28,.11,3.22,.44,5.56,1.5,2.33,1.06,5.06,2.83,7.31,5.08,2.25,2.25,4.03,4.97,5.25,6.86s1.89,2.94,2.33,3.25,.67-.14,1.33-1.5,1.78-3.64,3.03-4.7c1.25-1.05,2.64-.89,4.47,.11s4.11,2.83,6.53,5.5c2.42,2.67,4.97,6.17,6.5,7.72,1.53,1.56,2.03,1.17,2.67,.64,.64-.53,1.42-1.2,2.33-1.53,.92-.33,1.97-.33,3.06,.17s2.19,1.5,4.9,4.4,7.07,7.77,9.24,10.18,3.17,1.42,3.69,1.08c.53-.33,1.59-1,2.78-1.17s2.53,.17,3.92,.83c1.39,.67,2.83,1.67,4.89,3.69,2.06,2.03,4.72,5.08,6.18,6.49s1.76,1.1,2.51,.43,1.97-1.72,3.11-2.08,2.19-.03,4.9,2.37c2.71,2.4,7.13,6.93,9.54,9.04s2.86,1.83,3.67,1.56,1.97-.56,2.92-.61c.94-.06,1.67,.11,4.11,2.22s6.61,6.17,8.84,8.17,2.5,1.94,3.04,1.57c.54-.37,1.41-1.13,2.46-1.49,1.05-.36,2.33-.36,3.69-.36s2.81,0,3.83,.36,1.64,1.08,2.14,2.11,.89,2.36,1.39,3.03,1.11,.67,2.42,.47,3.31-.58,4.97-.64c1.67-.06,3,.22,4.69,1.14s3.75,2.47,5.42,4.53c1.67,2.06,2.94,4.61,3.83,5.81,.89,1.19,1.39,1.03,2.19,.31,.8-.72,1.92-2,3.25-2.53s2.89-.3,4.83,.56,4.28,2.36,6.36,3.42c2.08,1.06,3.92,1.67,5.83,2.22s3.92,1.06,5.72,2c1.8,.94,3.42,2.33,4.96,4.28s3.07,4.55,3.98,5.74c.92,1.19,1.25,1.03,2.39-.14s3.09-3.34,4.56-4.34c1.47-1,2.47-.83,3.61-.11,1.14,.72,2.42,2,3.77,4.06s2.82,4.99,3.82,6.31,1.66,1.02,2.66,.16c1-.86,2.39-2.31,3.64-3,1.25-.69,2.36-.64,4.04,.27,1.68,.91,3.99,2.71,5.65,4.18,1.67,1.47,2.72,2.64,3.67,3.19,.95,.56,1.78,.5,2.67,.31s1.83-.53,2.86-.42c1.03,.11,2.14,.67,4.06,2.11,1.92,1.44,4.64,3.78,6.56,5.33s3.03,2.33,3.94,2.72,1.64,.39,3.05,.33,3.53-.17,5.25,.11c1.72,.28,3.06,.94,4.67,2.28,1.61,1.33,3.5,3.33,4.89,4.75s2.28,2.25,3.31,2.67,2.19,.42,4.44,.72,5.58,.92,8.2,1.83,4.5,2.14,6.78,4.11c2.28,1.97,4.94,4.69,6.81,6,1.86,1.31,2.92,1.19,4.14,.97,1.22-.22,2.61-.56,4.5-.25s4.28,1.25,6.83,2.69c2.56,1.44,5.28,3.39,7.19,5.14,1.92,1.75,3.03,3.31,3.97,4.17s1.72,1.03,2.92,1.03,2.81-.17,4.58,0c1.78,.17,3.72,.67,6.19,1.97,2.47,1.31,5.47,3.42,7.89,5.56,2.42,2.14,4.25,4.31,6.06,5.75,1.81,1.44,3.58,2.17,7.8,3.61,4.22,1.44,10.89,3.61,17.25,5.5,6.36,1.89,12.42,3.5,19.28,5.72s14.53,5.06,22.83,8.31c8.31,3.25,17.25,6.92,25.47,10.69,8.22,3.78,15.72,7.67,25.64,13.61,9.92,5.94,22.25,13.94,30.56,19.47,8.31,5.53,12.58,8.58,16.67,12.11,4.08,3.53,7.97,7.53,11.56,10.58,3.58,3.06,6.86,5.17,10.64,8.42s8.06,7.64,14.64,14.56c6.58,6.92,15.47,16.36,22.36,24.72,6.89,8.36,11.78,15.64,15.36,19.58,3.59,3.94,5.97,4.56,8.78,5.17,2.81,.61,6.08,1.22,8.72,2.08s4.64,1.97,6.11,3.08c1.47,1.11,2.42,2.22,3.53,3.03s2.39,1.31,4.06,1.78c1.67,.47,3.72,.92,5.67,1.75,1.94,.83,3.78,2.06,5.31,3.61s2.75,3.44,4.17,4.89,3.03,2.44,4.67,3.47c1.64,1.03,3.31,2.08,4.42,3.36,1.11,1.28,1.67,2.78,2.22,4.03s1.11,2.25,1.75,3.11,1.36,1.58,3.44,3.17c2.08,1.58,5.53,4.03,8.28,6.5s4.81,4.97,6.33,7.17c1.53,2.19,2.53,4.08,3.42,5.25,.89,1.17,1.67,1.61,2.61,1.92,.94,.31,2.06,.47,3.33,1.06,1.28,.58,2.72,1.58,4.5,2.89s3.89,2.92,5.58,4.25c1.69,1.33,2.97,2.39,4.67,3.56,1.69,1.17,3.81,2.44,5.89,4s4.14,3.39,6.25,5.56,4.28,4.67,6.92,7.5c2.64,2.83,5.75,6,9.5,9.28,3.75,3.28,8.14,6.67,13.28,11.06,5.14,4.39,11.03,9.78,18.44,14.97s16.36,10.19,25.33,15.44,17.97,10.75,23.94,14.61c5.97,3.86,8.92,6.08,12.81,9.78,3.89,3.69,8.72,8.86,15.89,17s16.67,19.25,22.86,27.14c6.19,7.89,9.08,12.56,11.81,17.48,2.73,4.93,5.27,10.07,7.52,14.27s4.19,7.42,6.58,11.25c2.39,3.83,5.22,8.28,7.64,11.78,2.42,3.5,4.42,6.06,7.97,10.56s8.67,10.94,12.42,15.28,6.14,6.56,10.5,10.06c4.36,3.5,10.69,8.28,15.75,12.75,5.06,4.47,8.83,8.64,11.94,12.92,3.11,4.28,5.56,8.67,7.94,11.89s4.72,5.28,6.94,6.69c2.22,1.42,4.33,2.19,6.19,2.83s3.47,1.14,5.73,2.14c2.26,1.01,5.13,2.49,8.79,4.58,3.67,2.08,8.11,4.75,11.67,7.92,3.56,3.17,6.22,6.83,8.44,10.92,2.22,4.08,4,8.58,5,12.44s1.22,7.08,1.14,9.56c-.08,2.47-.47,4.19-1.14,5.78-.67,1.58-1.61,3.03-2.11,3.89-.5,.86-.56,1.25-.45,2.81s.39,4.33,.33,7.22c-.06,2.89-.44,5.89-.97,8.08-.53,2.19-1.19,3.58-1.81,4.25-.61,.67-1.17,.61-1.67,.25-.5-.36-.94-1.03-1.39-2.11s-.89-2.58-1.25-3.83c-.36-1.25-.64-2.25-.85-2.63-.21-.38-.4-.06-.6,1-.2,1.06-.42,2.89-.81,4.27-.39,1.39-.94,2.33-1.56,2.89s-1.28,.72-1.94,.67c-.67-.06-1.33-.33-2-.86-.67-.53-1.33-1.31-1.83-2.17-.5-.86-.83-1.81-1.17-2.31s-.67-.56-2.03-.42-3.75,.47-5,.78c-1.25,.31-1.36,.58-1.47,1.67-.11,1.09-.22,2.97-.5,4.25-.28,1.28-.72,1.94-1.5,2.22s-1.89,.17-2.56-.17c-.67-.33-.89-.89-1.11-2.25-.22-1.36-.44-3.53-1.3-4.86s-2.36-1.83-3.89-2.06-3.08-.17-4.69,.36-3.28,1.53-4.83,2.47c-1.56,.94-3,1.83-3.75,2.44-.75,.61-.81,1.05-.25,3.06,.56,2.01,1.72,5.61,2.33,9.08s.67,6.81,.61,8.92c-.06,2.12-.22,2.99-.55,3.44-.33,.44-.83,.44-2.28-1.09s-3.83-4.58-6.11-7.97-4.44-7.11-5.73-9.15c-1.29-2.04-1.77-2.46-2.54-2.87-.78-.42-1.89-.86-2.86-1.39s-1.81-1.14-2.61-1.58c-.81-.44-1.58-.72-2.09-.79-.51-.07-.83,.12-1.44,.85-.61,.72-1.55,2-2.05,2.8s-.56,1.14-.75,3.09c-.2,1.95-.53,5.49-1.03,8.55s-1.17,5.61-1.87,7.63-1.52,3.64-2.27,4.28c-.75,.64-1.47,.36-2.42-1.17-.95-1.53-2.11-4.3-3.08-8.28-.97-3.97-1.75-9.14-2.44-12.64s-1.31-5.33-2.08-6.89c-.78-1.56-1.72-2.83-2.56-4.31-.83-1.47-1.56-3.14-2.14-4.36s-1.03-2-1.53-2.47c-.5-.47-1.06-.64-1.53-.56-.47,.08-.86,.42-1.36,1.2-.5,.78-1.11,2-1.99,3.21-.88,1.21-2.07,2.46-3.18,3.43-1.11,.97-2.17,1.69-2.72,1.86-.55,.17-.62-.33-.45-1.39,.17-1.05,.56-2.72,.75-4.22s.19-2.83-.06-4.36c-.25-1.53-.75-3.25-1.06-5.06-.31-1.81-.42-3.69-.22-5.86s.69-4.61,.75-6.22c.06-1.61-.33-2.39-1.25-4.14s-2.36-4.47-3.53-6.36c-1.17-1.89-2.06-2.94-2.86-3.47-.81-.53-1.53-.53-2.11-.33-.58,.19-1.03,.58-1.28,1.47s-.31,2.28-.31,5.03,.06,6.86-.11,8.92c-.17,2.06-.67,2.06-1.28,1.5-.61-.56-1.39-1.67-2.11-2.33-.72-.67-1.39-.89-2.11-.94-.72-.06-1.5,.06-2.06,.5-.56,.44-.89,1.22-.81,2.42,.08,1.2,.58,2.8,1.11,4.8,.53,2,1.08,4.39,1.39,6.03,.31,1.64,.36,2.53,.03,3.72-.33,1.2-1.05,2.69-1.75,3.61-.69,.92-1.36,1.25-1.92,1.19-.56-.06-1-.5-1.56-2.36-.56-1.86-1.22-5.14-1.39-7.33-.17-2.19,.17-3.31,.28-4.36,.11-1.05,0-2.06-.17-3.36-.17-1.3-.39-2.92-.86-4.31-.47-1.39-1.19-2.56-1.84-3.24s-1.3-.93-1.89-1.04-1.14-.11-1.64,.22c-.5,.33-.94,1-1.25,2.17s-.47,2.83-.39,4.33c.08,1.5,.42,2.83,.39,4.39-.03,1.56-.42,3.33-1.03,5.17-.61,1.83-1.44,3.72-2.33,4.97-.89,1.25-1.83,1.86-2.58,2.14-.75,.28-1.31,.22-1.67-.53-.36-.75-.53-2.19-.58-5-.06-2.8,0-6.97-.05-9.67s-.23-4.03-.53-4.97c-.31-.94-.75-1.56-1.28-2.17-.53-.61-1.14-1.22-1.58-1.31-.44-.08-.72,.36-.86,1.67-.14,1.31-.14,3.58-.39,5.16-.25,1.58-.75,2.53-1.11,3.83-.36,1.31-.58,2.97-.94,5.08-.36,2.11-.86,4.67-1.72,7.03s-2.08,4.53-3.06,5.81c-.97,1.28-1.69,1.67-2.28,1.75-.58,.08-1.03-.14-1.58-2.53-.56-2.39-1.22-6.94-1.64-10.58s-.58-6.36-.48-8.45c.1-2.09,.51-3.64,.34-4.72s-.89-1.75-1.53-2.28c-.64-.53-1.19-.92-1.61-.89-.42,.03-.69,.47-1.17,1.7-.47,1.22-1.14,3.22-2.36,5.94-1.22,2.72-3,6.17-4.55,8.39-1.56,2.22-2.89,3.22-3.75,3.56s-1.25,0-1.56-2.14c-.31-2.14-.53-6.08-.58-9.44-.06-3.36,.06-6.14-.23-7.79-.29-1.65-1.05-2.24-1.8-2.85s-1.53-1.28-2.11-2.11-.97-1.83-1.31-3.56-.61-4.17-.92-5.06c-.31-.89-.64-.22-1.28,.83s-1.58,2.5-2.81,3.8-2.72,2.47-3.64,2.83c-.92,.36-1.25-.08-1.5-1.5-.25-1.42-.42-3.81-.25-6.14s.67-4.61,1-6.72c.33-2.11,.5-4.06,.78-6.72,.28-2.67,.67-6.06,.72-8.31,.06-2.25-.22-3.36-.56-4.03-.33-.67-.72-.89-1.31-.89s-1.36,.22-2.25,1.31c-.89,1.08-1.89,3.03-2.64,4.69-.75,1.67-1.25,3.06-1.64,4.28-.39,1.22-.67,2.28-1.36,3.14-.69,.86-1.8,1.53-2.55,1.83-.75,.31-1.14,.25-1.33-.36-.19-.61-.19-1.78,.17-3.97s1.08-5.42,1.58-7.81,.78-3.94,.89-6.17c.11-2.22,.06-5.11-.16-6.85-.21-1.74-.62-2.37-1.29-2.73-.67-.36-1.61-.47-2.39-.28s-1.39,.69-2.08,2.39c-.69,1.7-1.48,4.69-2.14,7.35-.67,2.66-1.22,5.06-1.81,6.45-.58,1.39-1.19,1.78-1.92,2-.72,.22-1.55,.28-2.03-.03-.47-.31-.58-.97-.36-2.58s.78-4.17,.94-6.36c.17-2.19-.06-4.03-.47-5.03-.42-1-1.03-1.17-1.5-1.11-.47,.06-.81,.33-1.25,1.14s-1,2.14-1.75,3.69-1.69,3.33-2.5,4.64c-.81,1.31-1.47,2.14-2.04,2.71-.56,.57-1.1,.93-1.66,1.04-.56,.11-1.17,0-1.58-.61-.42-.61-.64-1.72-.81-3.19s-.28-3.31-.42-4.47-.31-1.67-.61-1.92c-.3-.25-.75-.25-1.22,.22-.47,.47-.97,1.42-1.67,2.78-.69,1.36-1.58,3.14-2.56,4.28-.97,1.14-2.03,1.64-2.86,1.39s-1.44-1.25-1.75-3.36c-.31-2.11-.31-5.45-.67-7.36-.36-1.92-1.08-2.47-1.69-2.58-.61-.11-1.11,.22-1.89,1.11s-1.83,2.33-2.75,3.19c-.92,.86-1.69,1.14-2.31,1.06-.61-.08-1.06-.53-1.39-2.19s-.56-4.56-.94-6.28c-.39-1.72-.94-2.28-1.4-2.65s-.88-.62-1.55-.18-1.61,1.55-2.5,2.28c-.89,.72-1.72,1.06-2.42,1.03-.7-.03-1.25-.42-1.53-1.19-.28-.78-.28-1.94-.42-3.17s-.42-2.5-.89-3.56c-.47-1.05-1.14-1.89-2.03-1.89-.89,0-2,.83-2.83,1.17-.83,.33-1.39,.17-1.75-.14-.36-.31-.53-.75-.64-1.47-.11-.72-.17-1.72-1.17-3.08-1-1.36-2.95-3.08-5.39-5.47s-5.39-5.44-8.28-8.56c-2.89-3.11-5.72-6.28-7.89-9.61-2.17-3.33-3.67-6.83-5.53-10.97-1.86-4.14-4.08-8.92-7.47-12.75-3.39-3.83-7.94-6.72-15.31-10.42-7.36-3.69-17.53-8.19-27.17-11.75-9.64-3.56-18.75-6.17-23.28-7.25-4.53-1.08-4.47-.53-3.44-.03,1.03,.5,3.03,1,7.14,2.36s10.33,3.58,17.17,6.17c6.83,2.58,14.28,5.53,20.64,8.44s11.64,5.81,15.29,8.15,5.74,4.21,7.49,6.24c1.75,2.03,3.19,4.25,4.92,7.72s3.72,8.19,4.89,11.06c1.17,2.86,1.5,3.86,2.89,5.61s3.83,4.25,7.22,7.81,7.72,8.17,10.28,11,3.33,3.89,3.83,5.03c.5,1.14,.72,2.36,1.17,3.28,.44,.92,1.11,1.53,1.78,1.69s1.33-.11,2.11-.42c.78-.31,1.67-.64,2.31-.56,.64,.08,1.03,.58,1.31,1.75s.44,3,.58,4.25c.14,1.25,.25,1.92,.75,2.45s1.39,.92,2.11,1.03c.72,.11,1.28-.06,2.2-.46,.92-.4,2.3-1.1,3.13-1.21,.83-.11,1.17,.33,1.44,1.64s.5,3.47,.81,5.17c.31,1.69,.69,2.92,1.25,3.61s1.28,.86,2.19,.58c.92-.28,2.03-1,3.06-1.75,1.03-.75,1.97-1.53,2.53-1.56s.72,.69,.83,1.86,.17,2.78,.5,4.11c.33,1.33,.94,2.39,1.75,3.06,.81,.67,1.81,.94,2.78,1.03s1.92-.03,3-.97c1.08-.94,2.31-2.72,2.94-3.36,.64-.64,.69-.14,.81,.67,.11,.81,.28,1.92,.75,2.83,.47,.92,1.25,1.64,2.14,1.92s1.89,.11,2.94-.36c1.05-.47,2.17-1.25,3.44-3.06,1.28-1.8,2.72-4.64,3.39-5.36,.67-.72,.56,.67,.44,2.22s-.22,3.28-.19,4.53c.03,1.25,.19,2.03,.72,2.72,.53,.7,1.42,1.31,2.31,1.51s1.89-.03,2.69-.45c.81-.42,1.47-1.03,2.08-1.78s1.17-1.64,1.92-4.33c.75-2.69,1.69-7.2,2.42-9.45s1.22-2.25,1.53-1.03c.31,1.22,.42,3.67,0,7-.42,3.33-1.36,7.55-1.86,10.53-.5,2.97-.56,4.69-.44,5.97,.11,1.28,.39,2.11,.83,2.64s1.06,.75,2.03,.59c.98-.16,2.41-.73,3.47-1.37,1.06-.64,1.78-1.36,2.44-2.56,.67-1.19,1.28-2.86,1.92-4.64,.64-1.78,1.31-3.67,1.83-4.58s.92-.86,.89,.89c-.03,1.75-.47,5.2-.86,8.17-.39,2.97-.72,5.47-.97,7.56-.25,2.08-.42,3.75-.5,5.47-.08,1.72-.08,3.5,.14,5.31,.22,1.81,.67,3.64,1.33,4.58,.67,.94,1.56,1,2.53,.69,.97-.31,2.03-.97,3.08-1.81s2.11-1.83,2.81-2,1.03,.5,1.47,1.31c.44,.81,1,1.75,1.53,2.56s1.03,1.47,1.53,2,1,.92,1.31,1.47c.31,.55,.42,1.28,.31,3.08-.11,1.81-.44,4.69-.42,7.86,.03,3.17,.42,6.61,1.01,8.65s1.46,2.74,2.13,2.96c.67,.22,1.17,0,2.14-.55,.97-.55,2.42-1.45,3.95-3.22,1.53-1.78,3.14-4.45,4.5-7.14,1.36-2.69,2.47-5.42,3.03-6.06,.56-.64,.56,.81,.53,2.67-.03,1.86-.08,4.14,0,6.58,.08,2.45,.31,5.17,.86,7.81,.56,2.64,1.44,5.25,2.25,6.81,.81,1.56,1.53,2.06,2.22,2.25,.69,.19,1.36,.08,2.28-.64,.92-.72,2.08-2.06,3.22-4.08,1.14-2.03,2.25-4.75,3.17-7.89,.92-3.14,1.64-6.7,2.19-9.17,.56-2.47,.94-3.86,1.17-3.25s.28,3.22,.33,6.14c.06,2.92,.11,6.14,.44,8.14,.33,2,.94,2.78,1.69,3.25,.75,.47,1.64,.64,2.64,.22,1-.42,2.11-1.42,3.22-2.89,1.11-1.47,2.22-3.42,2.97-5.47,.75-2.05,1.14-4.22,1.33-6.67,.19-2.44,.19-5.17,.44-6.28,.25-1.11,.75-.61,1.24,.34,.49,.95,1.01,2.44,1.18,4.19,.17,1.75,0,3.92,.11,6.47,.11,2.56,.5,5.55,.92,7.69,.42,2.14,.86,3.42,1.58,4.31,.72,.89,1.72,1.39,2.69,1.64,.97,.25,1.92,.25,3.06-.89,1.14-1.14,2.47-3.42,3.17-5.36,.69-1.94,.75-3.56,.17-6.19-.58-2.64-1.81-6.31-2.17-8.06-.36-1.75,.14-1.58,1.08-.81,.94,.78,2.33,2.17,3.25,2.86,.92,.69,1.36,.69,1.7,.35,.34-.34,.66-1.22,.91-4.32,.25-3.11,.47-8.56,.78-11,.31-2.44,.69-1.89,1.67-.28s2.53,4.28,3.45,6.14c.92,1.86,1.19,2.81,1.16,4.09-.03,1.28-.36,2.83-.56,4.36-.19,1.53-.25,3.03-.17,4.36,.08,1.33,.31,2.5,.61,3.58,.31,1.08,.69,2.08,.86,3.08s.11,2-.25,4.17c-.36,2.17-1.03,5.5-1.14,7.36-.11,1.86,.33,2.25,1.28,2.33,.94,.08,2.39-.14,3.75-.78,1.36-.64,2.64-1.7,4-3.33s2.81-3.86,3.64-4.68c.83-.81,1.06-.19,1.73,1.09,.67,1.28,1.78,3.22,2.64,4.86,.86,1.64,1.47,2.97,1.97,4.81s.89,4.17,1.64,7.42c.75,3.25,1.86,7.42,2.22,9.5,.36,2.08-.03,2.08-2.06,1.28-2.03-.81-5.69-2.41-13.5-4.78-7.81-2.36-19.75-5.47-35-9.22-15.25-3.75-33.81-8.14-49.72-12.06-15.92-3.92-29.19-7.36-40.42-11.17-11.22-3.81-20.39-7.97-30.28-11.64-9.89-3.67-20.5-6.83-31.11-10"/><path id="path857" class="cls-2" d="M1356.95,447.56c-2.44-2.5-3.94-3.61-4.47-4.33-.53-.72-.08-1.06,3.33-2.5,3.41-1.44,9.81-4,18.4-6,8.58-2,19.36-3.44,29.22-3.67,9.86-.22,18.81,.78,26.61,1.44s14.47,1,21.5,2.58c7.03,1.58,14.42,4.42,21.61,8.5,7.19,4.08,14.19,9.42,20.78,16.47s12.75,15.83,18.08,23.64c5.33,7.81,9.83,14.64,13.22,20.39,3.39,5.75,5.67,10.42,7.19,13.75s2.31,5.33,3.39,6.83c1.08,1.5,2.47,2.5,5.56,4.53,3.08,2.03,7.86,5.08,13.86,7.44s13.22,4.03,21.11,5.75c7.89,1.72,16.44,3.5,21.78,4.72,5.33,1.22,7.44,1.89,8.81,2.47,1.36,.58,1.97,1.08,2.42,1.67,.44,.58,.72,1.25,1.33,1.61s1.56,.42,3.05,.42,3.56-.06,5.08,.36c1.53,.42,2.53,1.31,2.72,2.31,.19,1-.42,2.11-1.33,3.28s-2.14,2.39-5.14,3.5c-3,1.11-7.78,2.11-13.61,2.75s-12.72,.92-15.78,1.31-2.28,.89,.58,2.53,7.81,4.42,11.39,6.56,5.81,3.64,7.39,4.6c1.59,.96,2.63,1.43,4.13,2.54,1.5,1.11,3.5,2.89,4.89,4.67,1.39,1.78,2.17,3.56,2.22,4.89s-.61,2.22-1.31,2.75c-.69,.53-1.42,.69-3.25,.19s-4.78-1.67-6.47-2.25c-1.69-.58-2.14-.58-3.25-.44-1.11,.14-2.89,.42-5.39,0s-5.72-1.53-9.5-3.03c-3.78-1.5-8.11-3.39-10.19-4.06s-1.92-.11-1.64,.86c.28,.97,.67,2.36,.83,3.33,.17,.97,.11,1.53,.22,2.39,.11,.86,.39,2.03,.56,3.33s.22,2.75,.11,4.14c-.11,1.39-.39,2.72-1.28,3.39s-2.39,.67-3.61,.22c-1.22-.44-2.17-1.33-3.17-2.42-1-1.08-2.06-2.36-3-3-.94-.64-1.78-.64-3.11-1.03-1.33-.39-3.17-1.17-6.33-3-3.17-1.83-7.67-4.72-10.86-6.44-3.19-1.72-5.08-2.28-7.33-2.25-2.25,.03-4.86,.64-6.49,1.24-1.63,.6-2.32,1.23-2.54,1.76-.22,.53,0,.97,.25,2.25,.25,1.28,.53,3.39,.5,4.97-.03,1.58-.36,2.64-1.5,3.36-1.14,.72-3.08,1.11-4.58,1.11s-2.56-.39-4.06-2.53c-1.5-2.14-3.44-6.03-6.53-11.11-3.08-5.08-7.31-11.36-13.39-19.08-6.08-7.72-14.03-16.89-20.28-23.83s-10.81-11.67-15.86-15.94-10.61-8.11-19.22-13.58-20.28-12.58-29.25-18.31c-8.97-5.72-15.25-10.06-20.97-14.5-5.72-4.44-10.89-9-15.51-12.9-4.62-3.9-8.65-7.1-12.38-10.66-3.72-3.56-7.11-7.44-9.56-9.94h0Z"/><path id="path861" class="cls-1" d="M1385.48,592.33c1.75,.39,4.97,1.78,8.61,3.53,3.64,1.75,7.69,3.86,11.47,6.31s7.28,5.22,8.67,6.67c1.39,1.44,.67,1.56-1.17,1.44-1.84-.11-4.78-.44-7.3-.64s-4.64-.25-6.61-.42c-1.97-.17-3.81-.44-5.92-1.28s-4.5-2.22-6.28-3.94-2.94-3.78-3.47-5.64c-.53-1.86-.42-3.53-.22-4.67s.47-1.75,2.22-1.36h0Z"/><path id="path865" class="cls-2" d="M169.26,153.03c7.31-.03,12.86-.03,15.69-.25s2.94-.67,3.42-1.22c.47-.55,1.31-1.22,2.47-1.78,1.17-.55,2.67-1,3.97-1.53s2.42-1.14,2.94-1.67c.53-.53,.47-.97,.19-1.94s-.78-2.47-.72-3.83c.06-1.36,.67-2.58,1.67-3.75,1-1.17,2.39-2.28,4.2-3.21,1.81-.94,4.14-1.73,4.94-2.23s.14-.72-1.11-1.64c-1.25-.92-3.08-2.53-4.72-4.31s-3.08-3.72-4.33-6.19c-1.25-2.47-2.31-5.47-3.19-6.97-.89-1.5-1.61-1.5-6.73-1.78-5.12-.28-14.6-.83-29.63-.86-15.03-.03-35.58,.47-52.47,.67-16.89,.19-30.11,.08-42.31-.39-12.19-.47-23.36-1.31-31.22-1.5-7.86-.19-12.42,.25-16.22,1.03-3.81,.78-6.86,1.89-9.5,3.56-2.64,1.67-4.86,3.89-5.69,5.36s-.28,2.19,1,2.89c1.28,.69,3.28,1.36,5.61,1.81,2.33,.44,5,.67,6.36,1.3,1.36,.64,1.42,1.69,1.81,2.61,.39,.92,1.11,1.69,2.28,2.28,1.17,.58,2.78,.97,4.58,1.03,1.81,.06,3.81-.22,4.78-.22s.91,.39,1.02,1.31c.11,.92,.39,2.41,1.22,3.47s2.22,1.67,4.75,2.06c2.53,.39,6.2,.56,9.17,.64s5.25,.08,6.42,.33,1.22,.75,1.22,1.47-.06,1.67,.95,2.44,3.05,1.39,5.69,1.86c2.64,.47,5.86,.81,8.56,1,2.69,.19,4.86,.25,6.31,.53s2.17,.78,3.5,1.53,3.28,1.75,6.31,2.58c3.03,.83,7.14,1.5,11.31,1.86,4.17,.36,8.39,.42,13.47,.69,5.08,.28,11.03,.78,17.28,1s12.81,.17,20.61,.11c7.8-.06,16.86-.11,24.17-.14h0Z"/></svg>