<?xml version="1.0" encoding="UTF-8"?><svg id="Layer_1" xmlns="http://www.w3.org/2000/svg" viewBox="0 0 1260.88 751.87"><path d="M0,694.12c35.5-45.89,64.45-58.99,84.8-62.1,3.78-.58,24.26-3.41,52.82-8.47,23.87-4.23,33.61-8.14,39.51-10.95,22.67-10.78,41.46-34.19,36.66-46.87-1.41-3.74-10.86-4.43-21.96-11.34-13.89-8.65-17.05-8.1-18.07-11.29-3.19-9.98,25.54-22.31,48.65-47.99,17.93-19.92,23.29-37.67,30.58-53.63,21.52-47.15,59.33-77.72,102.87-112.91,69.55-56.22,136.46-84.27,169.6-95.34,9.4-3.14,41.08-18.55,153.72-39.75,92.4-17.39,101.21-11.69,115.96-11.69,59.28,0,112.87,0,157.08,29.64,7.8,5.23,21.46,15.51,34.75,11.29,4.03-1.28,12.35-5.27,30.58-46.58,12.43-28.17,10.21-30.04,18.07-43.75,9.03-15.75,19-25.08,38.92-43.75,13.52-12.67,28.93-27.1,52.82-42.34,17.37-11.08,31.5-17.26,59.78-29.64,43.55-19.06,50.13-17.5,54.21-15.53,20.41,9.86,19.62,49.76,19.46,57.87-.6,30.59-13.31,52.89-27.8,77.63-18.68,31.88-38.65,52.97-52.82,67.75-29.69,30.96-16.88,22.16-44.48,53.63-25.69,29.3-36.94,49.52-54.21,64.93-18.4,16.41-41.64,15.94-55.6,42.34-4.39,8.3,.4,11.12,.85,13.73,2.89,16.49,29.3,13.35,56.14,35.67,1.98,1.65,29,24.76,30.58,57.87,.81,16.97-5.48,29.66-18.07,55.05-18.58,37.46-31.44,42.8-29.19,60.69,1.55,12.38,9.94,27.57,19.46,38.11,8.86,9.81,17.88,14.68,16.68,21.17-.94,5.1-21.79-11.01-27.9-10.15-13.98,1.98-6.28,4.46-30.48-12.59-18.04-12.71-20.81-6.05-45.88-22.43-20.72-13.53-31.08-20.3-31.97-28.23-2.18-19.43,36.12-25.25,43.09-57.87,4.89-22.89-8.96-43.47-11.12-46.58-4.62-6.65-16.78,5.28-26.41,11.29-18.07,11.29-13.77,6.1-40.31,23.99-25.72,17.34-41.79,27.18-158.47,45.17-180.7,27.86-195.64,34.33-241.88,29.64,0,0-42.67-4.33-43.09,0-.25,2.56,16.34,2.97,27.6,27.12,4.01,8.6,32.3,18.42,32.17,19.46-.27,2.28,26.8,17.65,16.86,18.97-11.36,1.52-45.86,1.2-69.68-2.04-21.71-2.95-24.44,3.01-52.82,0-17.66-1.87-28.8-3.21-33.36-11.29-5.32-9.41,3.82-18.14,0-31.05-4.54-15.34-16.7-3.49-40.16-.63-34.75,4.23-19.87-1.13-45.13,6.55-30.85,9.38-20.33,13.52-38.68,25.25-14.51,9.27-28.72,17.29-45.13,48.63-5.24,10-35.49,72.63-41.45,71.07-7.85-2.06,6.19-70.48,7.37-78.55,4.78-32.73,54.34-70.14-13.67-20.09-4.41,3.25-17.61,24.35-37.91,45.34-30.97,32.02-64.34,7.86-70.92,7.48-44.13-2.52-75.95-4.67-83.01-11.89Z"/></svg>