<?xml version="1.0" encoding="utf-8"?>
<!-- Generator: Adobe Illustrator 28.1.0, SVG Export Plug-In . SVG Version: 6.00 Build 0)  -->
<svg version="1.1" id="Layer_1" xmlns="http://www.w3.org/2000/svg" xmlns:xlink="http://www.w3.org/1999/xlink" x="0px" y="0px"
	 viewBox="0 0 954.3 825.2" style="enable-background:new 0 0 954.3 825.2;" xml:space="preserve">
<style type="text/css">
	.st0{fill:#22B573;}
</style>
<path class="st0" d="M179.5,96.7l62,55l16,19v23l7,23v6h52h26h48h46l50,9l60,22l61,30l43,26l28,24l27,26l41,35l18,26l14,17
	c0,0,7,21,19,30s15,23,23,23s28,12,28,12l-9,28c0,0-29,25-43,27s-13,7-13,7s-4,5,1,12s16,12,16,12l36,17l21,10l15,18v7l-36-18l-27-9
	c0,0-9-2-14-1s-20-1-20-1s-25-20-30-20s-45,13-48,14s-32,11-44,10s-88,4-94,5s20,28,20,28s1,39-3,44s-14,19-14,24s-11,38-19,38
	s-21,16-21,16s-16,9-22,0s-10-11-15-11s-11,10-16-3s-3-18-11-16s-20,9-19,2s0-19,9-26s9-21,10-27s1-34,1-44s9-33,10-46
	s0.3-13.6-12-19c-14.8-6.5-10,0-23-8s-62-24-64-30s-82-52-85-55s-34-29-34-36s-40-32-46-33s-28-4-36-7s-3,25-3,25s2,59-5,60
	s-43,14-43,14s-5-5-7,3c-2,8,0,19,0,27s1,15-7,16s-19,9-19-11s-11-54,5-61s11-18,15-26c9.4-18.8-2-64-1-72s28-30,28-30s11-12,23-18
	s10,11,12-29s10.4-55.8,5-68c-6.7-15.3-21-37-25-43s-23-16-28-30s-17-25-21-41s-13-40,7-75C113.3,39.1,179.5,96.7,179.5,96.7z"/>
</svg>
