<?xml version="1.0" encoding="UTF-8"?><svg id="Layer_1_Image" xmlns="http://www.w3.org/2000/svg" viewBox="0 0 694.3 560.72"><path d="M142.02,72.31c.2,.03,.39,.09,.58,.16,5.97,2.33,14.94,4.7,22.72,.89,16.19-7.92,11.29-34.78,24-39,11.62-3.86,31.17,13.45,29,23-1.02,4.5-6.26,4.64-23,13-15.27,7.63-23.44,11.8-30,20-7.32,9.14-13.41,24.23-8,30,4.24,4.52,15.5,3.27,22-2,6.81-5.53,6.26-13.72,10-14,4.43-.33,8.52,10.92,10,15,1.41,3.87,8.51,23.39,2,28-3.04,2.15-6.24-.93-21-3-6.7-.94-10.06-1.41-12-1-19.1,4.04-24.43,95.19-9,99,6.7,1.66,9.35-15.14,30-33,35.48-30.68,83.65-29.5,83-37-.4-4.62-18.5-2.73-26-15-5.89-9.63-1.65-22.09-1-24,8.65-25.4,47.36-22.39,111-51,22.45-10.09,69.54-31.8,69-58-.15-7.34-4.07-16.41,1-21.45,6.26-6.23,20.47-.6,22,0,9.72,3.84,20.75,13.29,19,20.45-1.06,4.37-5.93,3.95-18,11-2.21,1.29-14.3,8.47-25,21-6.44,7.54-10.47,12.25-9,15,2.98,5.59,28.83,3.51,46-11,10.49-8.87,10.55-16.29,20-19,9.94-2.85,24.09,1.29,28,11,3.28,8.15-1.98,16.95-5,22-2.36,3.96-4.49,7.51-8,8-5.74,.8-8.36-7.53-15-9-8.35-1.85-16.62,8.62-22,14-24.87,24.88-66.32,19.52-66,23,.28,3,30.61,1.08,75,7,28.71,3.83,38.91,7.68,48,15,16.42,13.22,21.69,31.72,23,37,3.31,13.28,1.71,23.76,0,35-1.01,6.64-4.32,24.79-16,45-5.02,8.69-12.54,21.7-27,33-8.72,6.81-13.82,8.2-25,18-7.77,6.81-12.81,11.23-17,18-9.29,15.02-13.37,40.01-2,50,5.32,4.67,13.21,4.45,29,4,13.16-.37,20.78-.59,29-5,12.05-6.47,8.41-12.83,24-25,11.17-8.72,16.66-8.28,22-17,4.67-7.63,3.29-12.58,8-15,6.18-3.17,17.46,.78,21,9,.34,.79,2.95,6.84,0,11-3.56,5.03-10.73,.95-20,5-11.44,5.01-15.12,17.88-17,17-1.11-.52,4.3,4.17,6.91,2.87q3.54-1.77,10.09-2.87c6.08-1.02,8.66-2.13,23-8,8.52-3.49,14.41-5.9,22-7,5.85-.85,22.21-3.21,27,5,3.16,5.42,.79,14.63-4,17-4.1,2.03-7.16-2.34-17-3-3.64-.24-7.43,.5-15,2-12.86,2.54-19.29,3.81-20,7-.93,4.19,8.05,9.46,9,10,11.33,6.52,18.28,1.88,46,2,15.48,.07,21.05,1.55,28-3,6.24-4.09,7.29-8.9,12-9,7.59-.16,13.65,12.15,15.84,19,.88,2.77,4.34,13.61,0,17-2.99,2.33-7.31-.7-16.84-3-5.36-1.3-11.57-1.53-24-2-16.51-.62-16.14,.82-31,0-8.08-.45-11.67-1.07-12,0-.63,2.02,10.96,8.37,23,12,9.49,2.86,11.24,1.62,22,5,10.76,3.38,17.17,5.49,19,11,2.19,6.57-3.62,13.55-4,14-3.9,4.56-9.01,5.69-11,6-7.04,1.08-12.45-2.38-15-4-5.3-3.38-8.06-7.65-9-9-7.56-10.81-24.44-14.41-46-19-10.85-2.31-26.14-5.47-47-5-25.12,.56-46.96,6.13-58,9-22.8,5.94-32.61,11.33-49,8-5.29-1.07-14.11-2.97-22-10-13.73-12.23-15.26-31.59-16-41-.53-6.76-.07-12.08,.07-13.5,1.57-16.56,8.1-26.87,6.93-27.5-1.4-.77-8.78,15.38-25,31-3.64,3.5-10.95,10.46-22,17-17.8,10.53-29.63,10.69-30,16-.51,7.29,34.61,9.44,35.11,20.71,.19,4.4,.34,14.13-6.72,19.88-4.77,3.88-31.69,7.49-29.94,10.16,4.34,6.62,39.64,5.42,44.55-1.75,3.11-4.54-.64-8.7,3-16,.78-1.56,4.31-8.13,10-9,8.33-1.27,17.59,10.27,19,21,.13,1.02,1.4,11.54-4,15-4.97,3.18-15.01,0-15,0h0s-3.16,11.79,0,18c4.97,9.78,29.15,12.72,43,3,5.61-3.93,5.63-7.21,11-9,8.55-2.85,22.69,.75,27,12,3.96,10.34-2.01,22.93-9,25-4.16,1.23-6.34-1.95-16-4-5.38-1.14-9.25-1.1-17-1-17.4,.21-26.09,.32-30,5-4.85,5.81-4.82,16.65,0,22,4.81,5.33,11.62,2.13,16,8,3.16,4.23,3.07,10.49,1,15-2.49,5.41-7.48,7.52-11,9-2.7,1.14-7.61,3.21-12,2-8.25-2.27-9.12-14.6-14-24-2.45-4.72-8.84-14.37-43-26-22.98-7.82-43.03-11.27-75-15-48.18-5.62-85-9-85-9-38.76-3.56-54.27-4.42-63-17-6.29-9.07-8.54-23.48-2-34,8.67-13.95,28.18-13.63,30.6-13.55,10.52,.33,18.17,5.07,18.4,4.55,.5-1.11-39.63-11.19-61-43-7.41-11.03-10.17-21.11-12-28-12.38-46.7,9.69-91.09,7-92-1.89-.64-8.83,22.59-29,47-8.35,10.1-17.71,18.89-31,22-4,.94-13.83,3.24-20-2-6.03-5.12-5.69-15-4.88-22,7.16-61.89,41.88-112,41.88-112,29.4-42.44,59.5-68.6,61-95,.96-16.93,1-34,1-34,.03-14.33,.05-21.49,0-22-.67-6.73-1.56-9.16,0-12,4.02-7.35,19.92-9.43,24-4,5.03,6.68-11.1,20.41-6,32,2.95,6.69,11.62,9.59,19.7,10.95Z"/></svg>