<?xml version="1.0" encoding="UTF-8"?><svg id="Layer_1" xmlns="http://www.w3.org/2000/svg" viewBox="0 0 1081.36 983.79"><defs><style>.cls-1{stroke:#000;stroke-miterlimit:10;}</style></defs><path class="cls-1" d="M771.11,70.42c4.43-2.37,10.39-6.46,14.14-13.4,3.98-7.36,2.85-13.11,3.72-18.61,2.9-18.29,27.44-30.77,42.42-34.98,16.76-4.71,43.42-5.22,58.05,9.67,6.14,6.25,7.27,4.92,22.46,24.05,8.34,10.51,12.6,12.41,14.58,12.59,14.58,1.33,20.28-1.03,34.45,1.99,31.14,6.63,35.86,12.87,65.44,27.61,25.3,12.6,37.95,18.9,46.14,32.75,12.31,20.81,7.93,43.88,5.95,54.33-2.01,10.59-6.03,22.71-38.7,68.47-21.66,30.33-32.48,45.49-46.88,61.02-24.59,26.52-49.51,46.31-62.51,56.56-16.78,13.23-25.98,19.04-37.21,33.49-3.94,5.07-10.37,16.1-23.07,37.95-14.26,24.54-12.35,20.99-13.26,22.84-8.64,17.46-14.09,22.23-22.6,49.05-7.99,25.19-14.08,48.5-16.24,60.58-5.76,32.28-14.67,62.97-13.4,76.65,2.67,28.79,7.62,25.94,2.23,54.33-3.35,17.63,12.46,39.31,17.86,41.68,10.64,4.67,59.3-22.63,64-19.35,2.61,1.82-7.55,3.57-12.65,11.16-4.75,7.07-32.12,16.43-35.72,18.61-12.07,4.95-.21-.71,0,0,.53,1.77,4.13,.8,20.84-5.21,7.13-2.56,10.89,1.71,20.84-.74,14.69-3.63,36.98-4.66,38.7-2.98,2.42,2.37-23.01,10.74-26.79,11.16-6.7,.74-10.18,6.14-37.95,9.67-19.16,2.44-14.11,5.45-14.14,6.7-.05,1.69,16.36-2.01,25.3-1.49,12.86,.75,19.47-2.49,29.77,0,5.08,1.23,22.56,6.4,22.33,8.93-.36,3.98-32.34,3.09-41.68,3.72-12.3,.83-14.31-.7-26.05,1.49-10.7,2-18.74,.7-30.51,2.23-13.09,1.7-20.78,7.82-42.42,8.93-43.52,2.24-36.46-.96-45.4-5.21-10.11-4.81-12.22-40.02-13.4-69.96-1.49-37.95-1.53-58.12,7.44-81.86,5.93-15.69,5.21-11.91,13.4-26.79,13.48-24.51,5.98-24.8,20.84-45.4,1.52-2.1-15.32,23.93-40.93,58.05-11.91,15.87-30.21,40-58.79,66.23-30.4,27.91-56.77,46.33-74.42,50.61-6.84,1.66-27.27,2.09-28.46,8.14-1.06,5.4,25.09-2.8,35.03-.17,22.15,5.87,50.38,29.74,54.99,45.06,1.98,6.56,11.86,32.18,3.98,53.67-6.43,17.54-28.17,39.51-39.09,48.37-9.77,7.92-25.93,12.08-39.75,11.26-22.53-1.33-47.33,.8-68.91-7.29-22.01-8.25-36.41-10.5-37.61-8.71-1.15,1.72,13.27,10.35,25.3,17.86,12.75,7.96,25.91,11.02,52.84,19.35,23.31,7.21,82.46,29.59,81.86,32.75-.61,3.22-69.94-9.32-76.68-10.89-9.4-2.19-10.87-4.15-25.18-8.61-6.5-2.03-25.65-12.76-23.17-6.54,2.98,7.44,16.15,9.16,25.3,17.12,3.78,3.28,86.33,49.86,26.05,32-2.9-.86-37.98-15.48-49.86-20.84-8.13-3.66-9.35-5.68-24.56-14.14-16.88-9.39-18.79-8.81-19.35-8.19-2.49,2.78,25.44,29.85,27.54,32.75,40.4,55.71-22.2-5.97-40.19-23.81-13.03-12.93-23.46-14.36-29.13-16.89-15.52-6.93-26.36-16.43-69.85-26.27-55.58-12.58-46.85-13.39-87.82-21.58-63.05-12.61-73.38-15.13-85.58-30.51-12.34-15.55-12.78-40.73-13.4-75.91-.39-22.13-7.89-32.8-8.19-45.4-.74-32-5.83-4.01-21.19-3.6-2.82,.08-31.04-.97-66.62-4.59-45.2-4.6-46.32-4.6-49.12-6.7-21.23-15.88-18.13-59.82-8.93-89.3,12.63-40.47,32.84-41.14,69.21-99.72,25.64-41.29,16.67-42.68,40.93-78.14,17.07-24.95,16.19-16.48,78.14-84.1,23.83-26,36.16-40.57,59.54-46.88,6.97-1.88,24.44-6.34,43.16,1.49,18.16,7.59,34.52,20.18,35.12,39.85,.61,19.85-60.91,88.86-60.42,89.64,3.72,5.95,67.5-77.01,84.1-96,16.96-19.41,33.01-31.55,118.33-79.63,29.38-16.56,63.59-35.47,113.86-64.75,34.62-20.16,54.59-32.26,75.91-55.07,14.38-15.39,18.36-23.86,32.75-36.47,25.02-21.93,52.86-31.27,72.93-35.72Z"/></svg>