<?xml version="1.0" encoding="UTF-8"?><svg id="Layer_1" xmlns="http://www.w3.org/2000/svg" viewBox="0 0 1085.75 984.12"><defs><style>.cls-1{stroke:#000;stroke-miterlimit:10;}</style></defs><path class="cls-1" d="M880.98,178.91c27.2-23.01,44.51-45.11,55.4-61.31,16.61-24.72,18.01-35.33,37.67-57.61,12.58-14.26,24.39-23.05,48.01-40.63,23.21-17.27,31.02-20.07,39.15-18.47,10.55,2.08,20.22,11.27,22.9,21.42,1.98,7.49,.87,10.93,.5,22.9-.49,15.4-2.65,25.64-4.19,36.19-3.47,23.81-5.82,56.15-16.25,81.25-10.19,24.54-22.8,39.26-48.01,68.69-23.48,27.41-35.22,41.12-48.01,47.27-3.1,1.49-16.97,7.88-29.55,21.42-5.71,6.15-7.58,9.92-8.13,11.08-7.44,15.73-2.47,36.99,4.43,38.41,9.1,1.87,21.85-30.72,24.38-29.55,2.67,1.24-12.59,37.34-10.34,38.41,2.84,1.35,32.76-53.45,33.24-53.18,.45,.24-28.57,45.13-19.94,53.18,7.66,7.15,42.17-17.38,42.84-16.25,.72,1.21-40.92,25.45-38.41,31.02,1.65,3.67,21.5-2.83,22.16-.74,.58,1.84-14.17,8.89-30.28,13.3-12.65,3.45-20.88,5.6-31.76,3.69-12.66-2.22-21.12-8.58-24.38-11.08-3.23-2.49-15.13-12.17-20.68-28.81-4.06-12.16-2.11-20.2-5.91-21.42-4.1-1.31-9.34,.46-17.73,5.17-17.17,9.64-29.95,17.71-59.83,26.59-8.92,2.65-31.75,9.7-51.71,28.81-17.57,16.82-25.42,35.82-29.55,45.8-5.24,12.67-1.86,9.52-13.3,48.01-4.55,15.31-6.9,21.91-4.43,23.64,4.09,2.85,13.67-13.13,36.93-25.85,26.28-14.37,53.92-20.68,53.92-20.68,8.17-1.87,17.37-3.4,20.68-10.34,2.07-4.34,.92-9.36-1.48-19.2-2.86-11.77-6.92-21.3-6.65-21.42,.46-.2,9.08,28.53,17.73,28.07,6-.32,6.66-14.4,19.94-35.46,7.67-12.14,16.88-22.4,18.47-21.42,2.79,1.72-19.24,37.35-14.77,40.63,5.18,3.8,43.15-38.08,43.58-37.67,.42,.4-37.36,38.05-32.5,44.32,2.53,3.26,13.62-5.83,36.19-5.91,3.38-.01,13.69,.15,25.85,4.43,6.51,2.29,14.44,6.07,14.03,7.39-.58,1.91-17.29-5.83-38.41-2.22-3.72,.64-16.23,3.11-28.07,12.56-4.16,3.32-16.18,12.92-14.03,20.68,1.04,3.77,4.76,4.73,18.47,10.34,22.57,9.23,30.05,13.81,36.19,19.94,4.18,4.17,8.45,9.78,7.39,11.08-2.18,2.66-25.26-14.84-56.14-22.16-4.24-1.01-8.35-1.75-13.3-.74-11.63,2.39-13.23,11.52-25.11,19.2-11.14,7.21-13.95,1.91-31.76,9.6-11.55,4.99-19.39,11.12-25.85,16.25-13.15,10.43-13.53,14.44-26.59,26.59-18.26,16.98-23.55,14.77-33.24,25.85-4.63,5.29-11.46,14.99-16.99,44.32-7.06,37.49-1.25,50.04-4.43,87.16-2.45,28.6-8.34,49.58-13.3,67.22-6.31,22.46-14.43,51.4-32.5,81.99-9.02,15.27-36.71,60.81-93.81,92.33-9.6,5.3-52.99,28.39-114.49,30.28-26.99,.83-77.2,2.38-127.79-29.55-38.28-24.16-59.22-56.4-69.43-76.08-25.58-49.29-22.89-94.89-21.42-115.23,3.7-51.29,23.57-88.73,38.41-116.71,22.89-43.15,33.65-43.45,56.88-91.59,15.63-32.41,26.42-55.44,25.85-87.9-.18-10.63-1.93-42.12-21.42-73.87-11.5-18.73-24.47-29.89-42.1-45.06-15.37-13.22-27.8-23.92-47.27-32.5-16.17-7.13-30.48-9.18-59.09-13.3-30.17-4.34-45.25-6.51-64.26-5.17-18.99,1.33-26.69,4.61-70.91,9.6-19.43,2.19-22.05,2.02-22.16,1.48-.4-2.02,33.29-12.3,67.22-17.73,46.35-7.42,87.3-4.85,118.18,0,26.77,4.21,50.75,7.97,79.77,22.16,18.99,9.28,51.8,25.81,76.08,62.05,21.55,32.16,25.31,63.32,28.81,92.33,2.5,20.71,5.91,51.42-3.69,87.9-7.33,27.85-14.34,29-41.36,84.21-20.43,41.73-30.75,63.18-36.19,91.59-4.91,25.63-10.29,55.92,3.69,89.38,11.46,27.4,30.44,43.85,39.89,50.97,39.91,30.07,87.63,33.92,108.58,24.38,28.05-12.78,44.59-22.42,67.96-44.32,34.68-32.5,41.39-57,50.97-105.63,12.32-62.55,4.09-54.58,8.86-127.79,.41-6.27,1.61-22.66-8.13-36.93-9.86-14.46-27.83-22.16-31.76-18.47-2.84,2.67,3.53,9.53,0,16.25-4.19,7.98-12.8,2.26-14.19,7.65-1.26,4.88,4.62,11.66,11.24,22.63,7.8,12.92,4.72,37.8,2.22,38.41-4.75,1.16-17.06-60.68-26.59-59.09-5.86,.98-3.73,21.53-20.68,40.63-1.17,1.32-7.63,8.59-9.6,7.39-5.03-3.07,25.34-57.18,19.94-60.57-2.09-1.31-7.43,6.24-21.42,16.99-12.91,9.92-31.11,20.95-33.24,18.47-2.19-2.56,12.07-19.99,27.33-33.24,12.11-10.51,22.8-16.6,22.16-17.73-1.04-1.83-30.14,12.74-31.02,11.08-.73-1.37,20.6-8.21,25.11-24.38,2.95-10.58-3.96-15.61-6.65-31.76-2.68-16.13-.92-41.97,11.08-48.75,18.53-10.47,51.83,30,63.52,21.42,8.41-6.16-5.13-29.73-8.86-62.05-5.69-49.31,14.88-89.3,22.9-104.89,30.27-58.84,81.58-85.18,100.46-94.55,62.04-30.78,128.77-28.91,131.48-28.81,20.79,.79,50.93,4.56,52.44-1.48,1.12-4.46-14.73-8.74-30.28-27.33-7.31-8.75-15.63-18.68-15.51-31.02,.15-16.08,14.45-19.4,22.9-38.41,12.71-28.6-1.88-61.07-.74-61.31,1.37-.28,8.97,48.83,16.99,48.75,9.62-.1,16.82-71.04,17.73-70.91,.92,.13-11.04,72.69-3.69,74.6,7.29,1.9,32.3-66.12,33.24-65.74,.95,.38-29.42,66.93-17.73,74.6,7.07,4.64,27.25-13.7,28.07-12.56,.64,.9-12.52,11.61-28.07,26.59-15.32,14.76-16.42,17.75-16.25,20.68,.59,10.12,15.97,12.1,23.64,28.81,2.95,6.43,3.63,12.56,3.69,16.99Z"/></svg>