<?xml version="1.0" encoding="UTF-8"?><svg id="Layer_1" xmlns="http://www.w3.org/2000/svg" viewBox="0 0 177.88 54.19"><defs><style>.cls-1{stroke:#000;stroke-miterlimit:10;}</style></defs><path class="cls-1" d="M29.96,27.92c1.29-1.91,2.44-2.68,3.61-3.9,1.82-1.92,1.07-2.24,2.65-3.68,.46-.42,2.16-1.94,4.71-2.43,1.64-.32,1.92,.13,3.31-.37,1.48-.53,2.61-.93,4.05-1.47,1.1-.41,2.3-.47,3.83-.69,2.47-.35,3.28-.21,6.4-1.3,1.83-.64,3.04-1.3,3.9-1.77,6.95-3.77,15.77-5.35,17.15-5.6,4.15-.74,2.47,.11,13.62-.74,4.06-.31,8.27-.64,13.69-1.47,4.74-.73,4.82-.98,10.82-1.99,5.62-.94,8.7-1.46,12.88-1.77,6.71-.5,11.96-.15,16.2,.15,2.7,.19,5.78,.41,9.86,1.1,5.21,.88,8.43,1.46,12.15,3.46,2.57,1.39,5.38,2.9,7.14,6.26,.6,1.15,1.91,4.09,1.25,7.73-.57,3.2-2.35,5.22-3.46,6.48-1.73,1.97-3.41,2.95-5.96,4.42-1.73,1-4.85,2.76-9.42,4.12-3.74,1.12-6.57,2.83-12.22,3.31-7.24,.62-12.61,.93-14.8,1.18-4.49,.52-9.33,.88-13.25,.96-7.07,.15-6.41,.3-11.04,.29-3.53,0-6.49,.22-12.29,.37-5.58,.14-8.57,.67-13.69,1.1-5.51,.46-8.91,1.85-14.58,3.09-3.89,.85-4.17,1.84-8.02,3.39-3.12,1.25-10.79,5.66-11.78,5.52-.46-.06,9.36-8.63,12.07-10.38,4.43-2.86,7.54-3.54,11.63-4.56,4.51-1.12,8.39-2.21,12.29-2.65,2.31-.26,5.16-.79,6.4-.88,2.77-.21,5.37-.54,11.34-1.1,7.73-.74,11.41-.96,15.09-1.55,6.33-1.01,6.26-.59,11.48-1.47,1.28-.22,3.61-.28,10.67-.96,5.5-.53,10.91-1.46,13.77-2.28,4.42-1.28,4.81-1.99,7.21-3.31,4.01-2.2,5.73-3.77,6.26-5.67,.05-.18,.65-2.47-.59-3.9-.79-.91-1.96-1.07-4.86-1.1-4.47-.05-6.71-.08-9.09,.43-3.68,.79-7.77,2.44-7.62,3.39,.12,.72,2.52,.24,4.56,2.13,.28,.26,1.89,1.75,1.55,3.24-.18,.78-1,1.3-2.65,2.28-1.85,1.11-3.41,1.72-4.34,2.06-.35,.13-3.6,1.3-3.75,.96-.2-.44,5.04-2.98,4.86-3.39-.11-.25-2.3,.45-6.63,1.84-.99,.32-2.58,.84-4.79,1.25-.56,.11-2.67,.5-2.72,.29-.05-.18,1.44-.7,6.04-2.36,3.58-1.29,6-2.16,5.96-2.28-.03-.11-2.07,.56-5.23,.96-1.33,.17-3.28,.34-3.31,.15-.07-.39,8.11-2.2,8.02-2.65-.08-.4-5.45,.9-6.48-.96-.68-1.23,1.06-2.9,.44-3.68-.8-1.02-4.59,.78-6.7,1.69-1.85,.8-6.13,1.88-14.65,4.2-8.06,2.19-12.1,3.23-16.64,3.46-5.42,.28-10.41-.87-10.9,.96-.07,.26-.49,1.35-.29,2.21,.46,2.07,2.08,2.24,1.82,2.87-.33,.77-3.59,1.7-4.61,1.77-5.29,.35-11.33,1.73-12.29,1.91-1.55,.29,5.72-1.31,5.67-1.69-.08-.63-14.21,.52-10.9,.15,.07,0,13.92-.87,13.91-1.25,0-.34-8.47-.67-8.47-.81,0-.14,8.69,0,8.76-.81,.03-.37-1.73-.53-2.13-1.77-.31-.93,.46-1.62,.15-1.99-.59-.7-2.94-.74-6.4-.15-3.31,.57-3.26,1.51-6.11,2.36-2.2,.65-2.65,1.19-5.23,2.13-.74,.27-2.06,.68-5.89,.88-1.1,.06-3.52,.02-8.32-.07-.82-.02-3.88-.08-7.29-.37-.04,0-.83-.07-1.91-.22-2.36-.33-3.56-.5-4.64-1.18-.57-.35-1.76-1.12-1.84-2.28-.04-.61,.24-1.11,.59-1.62Z"/></svg>